<svg xmlns="http://www.w3.org/2000/svg" width="360" height="249" fill="none" viewBox="0 0 360 249">
    <g filter="url(#filter0_d)">
        <rect width="320" height="209" x="20" y="20" fill="#fff" rx="8"/>
        <path fill="#4F4F4F" d="M103.703 98.084h.867c.438-.004.784-.117 1.037-.34.258-.222.387-.545.387-.967 0-.406-.107-.72-.322-.943-.211-.227-.535-.34-.973-.34-.383 0-.697.112-.943.334-.246.219-.369.506-.369.861h-1.424c0-.437.115-.835.346-1.195.234-.36.558-.638.972-.838.418-.203.885-.304 1.401-.304.851 0 1.519.214 2.004.644.488.426.732 1.02.732 1.781 0 .383-.123.745-.369 1.084-.242.336-.557.59-.944.762.469.16.825.412 1.067.756.246.344.369.754.369 1.23 0 .766-.264 1.375-.791 1.829-.523.453-1.213.679-2.068.679-.821 0-1.493-.219-2.016-.656-.523-.438-.785-1.02-.785-1.746h1.424c0 .375.125.68.375.914.254.234.593.351 1.019.351.442 0 .789-.117 1.043-.351.254-.234.381-.574.381-1.02 0-.449-.133-.794-.398-1.037-.266-.242-.661-.363-1.184-.363h-.838v-1.125zm10.313 2.197l-.633.651V103h-1.424v-9h1.424v5.191l.445-.556 1.752-1.975h1.711l-2.355 2.643 2.607 3.697h-1.647l-1.88-2.719zm5.548-3.62l.041.661c.446-.52 1.055-.779 1.829-.779.847 0 1.427.324 1.74.973.461-.649 1.109-.973 1.945-.973.699 0 1.219.193 1.559.58.343.387.519.957.527 1.711V103h-1.424v-4.125c0-.402-.088-.697-.263-.885-.176-.187-.467-.281-.873-.281-.325 0-.59.088-.797.264-.203.171-.346.398-.428.68l.006 4.347h-1.424v-4.172c-.02-.746-.4-1.119-1.143-1.119-.57 0-.974.232-1.213.697V103h-1.423v-6.34h1.341zM135.443 103c-.062-.121-.117-.318-.164-.592-.453.473-1.008.709-1.664.709-.636 0-1.156-.181-1.558-.545-.403-.363-.604-.812-.604-1.347 0-.676.25-1.194.75-1.553.504-.363 1.223-.545 2.156-.545h.873v-.416c0-.328-.091-.59-.275-.785-.184-.2-.463-.299-.838-.299-.324 0-.59.082-.797.246-.207.16-.31.365-.31.615h-1.424c0-.347.115-.672.346-.972.23-.305.543-.543.937-.715.399-.172.842-.258 1.33-.258.742 0 1.334.188 1.776.563.441.37.668.894.679 1.57v2.859c0 .57.08 1.026.24 1.365v.1h-1.453zm-1.564-1.025c.281 0 .545-.069.791-.205.25-.137.437-.321.562-.551v-1.196h-.767c-.527 0-.924.092-1.19.276-.265.183-.398.443-.398.779 0 .274.09.492.269.656.184.161.428.241.733.241zm9.838-.938l1.008-4.377h1.388l-1.728 6.34h-1.172l-1.359-4.353-1.336 4.353h-1.172l-1.735-6.34H139l1.025 4.33 1.301-4.33h1.072l1.319 4.377zm7.137 1.963c-.063-.121-.118-.318-.165-.592-.453.473-1.007.709-1.664.709-.636 0-1.156-.181-1.558-.545-.403-.363-.604-.812-.604-1.347 0-.676.25-1.194.75-1.553.504-.363 1.223-.545 2.157-.545h.873v-.416c0-.328-.092-.59-.276-.785-.183-.2-.463-.299-.838-.299-.324 0-.59.082-.797.246-.207.16-.31.365-.31.615h-1.424c0-.347.115-.672.346-.972.23-.305.543-.543.937-.715.399-.172.842-.258 1.33-.258.743 0 1.334.188 1.776.563.441.37.668.894.679 1.57v2.859c0 .57.08 1.026.241 1.365v.1h-1.453zm-1.565-1.025c.281 0 .545-.069.791-.205.25-.137.438-.321.563-.551v-1.196h-.768c-.527 0-.924.092-1.189.276-.266.183-.399.443-.399.779 0 .274.09.492.27.656.183.161.427.241.732.241zm6.393-1.014l1.289-4.3h1.517l-2.519 7.3c-.387 1.066-1.043 1.6-1.969 1.6-.207 0-.436-.036-.686-.106v-1.101l.27.017c.359 0 .629-.066.809-.199.183-.129.328-.348.433-.656l.205-.545-2.226-6.31h1.535l1.342 4.3z"/>
        <path fill="#BDBDBD" d="M91.492 103.582h-.978V93.469h.978v10.113z"/>
        <path fill="#4F4F4F" d="M58.68 100.803c0-.375-.133-.664-.399-.867-.261-.204-.736-.409-1.424-.616-.687-.207-1.234-.437-1.64-.691-.777-.488-1.166-1.125-1.166-1.91 0-.688.28-1.254.838-1.7.562-.445 1.29-.667 2.185-.667.594 0 1.123.109 1.588.328.465.218.83.53 1.096.937.265.402.398.85.398 1.342H58.68c0-.445-.14-.793-.422-1.043-.278-.254-.676-.38-1.196-.38-.484 0-.86.103-1.13.31-.266.207-.399.496-.399.867 0 .312.145.574.434.785.289.207.765.41 1.43.61.663.195 1.197.42 1.6.673.401.25.696.54.884.867.187.325.281.706.281 1.143 0 .711-.273 1.277-.82 1.699-.543.418-1.282.627-2.215.627-.617 0-1.186-.113-1.705-.34-.516-.23-.918-.547-1.207-.949-.285-.402-.428-.871-.428-1.406h1.483c0 .484.16.859.48 1.125.32.265.78.398 1.377.398.516 0 .902-.103 1.16-.31.262-.211.393-.489.393-.832zM62.84 103h-1.424v-6.34h1.424V103zm-1.512-7.986c0-.22.069-.4.205-.545.14-.145.34-.217.598-.217.258 0 .457.072.597.217.141.144.212.326.212.545 0 .215-.07.394-.212.539-.14.14-.34.21-.597.21-.258 0-.457-.07-.598-.21-.136-.145-.205-.325-.205-.54zm5.127 5.267l-.633.651V103h-1.424v-9h1.424v5.191l.446-.556 1.751-1.975h1.712l-2.356 2.643L69.982 103h-1.646l-1.88-2.719zM74.453 103c-.062-.121-.117-.318-.164-.592-.453.473-1.008.709-1.664.709-.637 0-1.156-.181-1.559-.545-.402-.363-.603-.812-.603-1.347 0-.676.25-1.194.75-1.553.504-.363 1.223-.545 2.156-.545h.873v-.416c0-.328-.092-.59-.275-.785-.184-.2-.463-.299-.838-.299-.324 0-.59.082-.797.246-.207.16-.31.365-.31.615h-1.424c0-.347.115-.672.345-.972.23-.305.543-.543.938-.715.398-.172.842-.258 1.33-.258.742 0 1.334.188 1.775.563.442.37.668.894.68 1.57v2.859c0 .57.08 1.026.24 1.365v.1h-1.453zm-1.564-1.025c.28 0 .545-.069.79-.205.25-.137.438-.321.563-.551v-1.196h-.767c-.528 0-.924.092-1.19.276-.266.183-.398.443-.398.779 0 .274.09.492.27.656.183.161.427.241.732.241zm7.588-4.014c-.188-.031-.381-.047-.58-.047-.653 0-1.092.25-1.319.75V103h-1.424v-6.34h1.36l.035.71c.344-.552.82-.827 1.43-.827.203 0 .37.027.503.082l-.005 1.336z"/>
        <path fill="#009914" d="M20 28c0-4.418 3.582-8 8-8h304c4.418 0 8 3.582 8 8v32H20V28z"/>
        <path fill="#fff" d="M41.68 45h-6.693v-1.142l3.316-3.616c.478-.533.818-.977 1.018-1.333.205-.36.308-.72.308-1.08 0-.474-.134-.857-.403-1.148-.265-.292-.623-.438-1.074-.438-.537 0-.954.164-1.25.492-.297.328-.445.777-.445 1.347h-1.661c0-.606.137-1.15.41-1.634.278-.487.672-.866 1.183-1.135.515-.268 1.107-.403 1.777-.403.966 0 1.727.244 2.283.732.56.483.841 1.153.841 2.01 0 .496-.141 1.018-.424 1.565-.278.542-.736 1.16-1.374 1.852l-2.433 2.605h4.62V45zm12.824-2.46l1.531-7.493h1.716L55.454 45H53.8l-1.894-7.267L49.972 45H48.31l-2.296-9.953h1.715l1.545 7.478 1.9-7.478h1.45l1.88 7.492zM63.042 45c-.073-.141-.137-.371-.191-.69-.53.551-1.176.827-1.942.827-.743 0-1.349-.212-1.818-.636-.47-.424-.704-.948-.704-1.572 0-.789.291-1.393.875-1.812.588-.424 1.426-.636 2.515-.636h1.019v-.485c0-.383-.107-.688-.321-.916-.215-.232-.54-.349-.978-.349-.378 0-.688.096-.93.288-.241.186-.362.426-.362.717h-1.661c0-.405.134-.783.403-1.134.27-.356.634-.634 1.094-.834.465-.2.982-.301 1.552-.301.866 0 1.556.218 2.071.656.515.433.78 1.044.793 1.832v3.336c0 .665.094 1.196.28 1.593V45h-1.695zm-1.825-1.196c.328 0 .636-.08.923-.24.291-.16.51-.373.656-.642v-1.395H61.9c-.615 0-1.077.107-1.387.322-.31.214-.465.517-.465.909 0 .319.105.574.314.765.215.187.5.28.855.28zm8.852-4.683c-.218-.036-.444-.055-.676-.055-.761 0-1.274.292-1.538.875V45h-1.662v-7.397h1.586l.041.828c.401-.643.957-.964 1.668-.964.237 0 .433.032.588.096l-.007 1.558zm4.17 6.016c-1.053 0-1.907-.33-2.563-.992-.652-.665-.978-1.549-.978-2.652v-.205c0-.738.142-1.397.424-1.975.287-.584.688-1.037 1.203-1.36.515-.324 1.09-.486 1.723-.486 1.007 0 1.784.321 2.33.964.552.642.828 1.551.828 2.727v.67h-4.833c.05.61.253 1.094.608 1.45.36.355.812.532 1.354.532.761 0 1.38-.307 1.86-.922l.895.854c-.296.442-.693.786-1.19 1.032-.492.242-1.046.363-1.66.363zm-.198-6.337c-.456 0-.825.16-1.107.478-.278.32-.456.764-.534 1.333h3.165v-.123c-.036-.556-.184-.975-.444-1.258-.26-.287-.62-.43-1.08-.43zm6.098-.39c.542-.629 1.228-.943 2.057-.943 1.577 0 2.377.9 2.4 2.7V45h-1.661v-4.772c0-.51-.112-.87-.335-1.08-.22-.214-.543-.32-.971-.32-.666 0-1.162.295-1.49.888V45h-1.661V34.5h1.66v3.91zm5.83 2.823c0-.724.144-1.376.431-1.955.287-.583.69-1.03 1.21-1.34.52-.314 1.117-.471 1.791-.471.998 0 1.807.321 2.427.964.624.642.962 1.495 1.012 2.556l.007.39c0 .73-.142 1.38-.424 1.955-.278.574-.68 1.019-1.203 1.333-.52.315-1.121.472-1.805.472-1.044 0-1.88-.347-2.509-1.04-.624-.697-.936-1.624-.936-2.782v-.082zm1.662.144c0 .761.157 1.358.472 1.791.314.428.752.642 1.312.642s.996-.218 1.306-.656c.314-.437.471-1.078.471-1.92 0-.748-.161-1.34-.485-1.778-.319-.437-.754-.656-1.306-.656-.542 0-.973.216-1.292.65-.319.428-.478 1.07-.478 1.927zm11.101 2.898c-.487.575-1.18.862-2.078.862-.802 0-1.41-.235-1.825-.704-.41-.47-.615-1.149-.615-2.038v-4.792h1.661v4.772c0 .939.39 1.408 1.169 1.408.807 0 1.351-.29 1.634-.868v-5.312h1.661V45h-1.566l-.04-.725zm7.445-1.285c0-.296-.123-.522-.369-.677-.242-.155-.645-.291-1.21-.41-.565-.118-1.037-.269-1.415-.45-.83-.402-1.245-.983-1.245-1.744 0-.638.269-1.171.807-1.6.538-.428 1.221-.642 2.051-.642.884 0 1.597.218 2.14.656.546.438.82 1.005.82 1.702h-1.661c0-.319-.119-.583-.356-.793-.237-.214-.551-.321-.943-.321-.365 0-.663.084-.896.253-.227.169-.341.394-.341.677 0 .255.107.453.321.594.214.142.647.285 1.299.431.651.141 1.162.312 1.531.513.374.196.649.433.827.71.182.279.274.616.274 1.012 0 .666-.276 1.206-.828 1.62-.551.41-1.273.616-2.167.616-.606 0-1.146-.11-1.62-.328-.474-.22-.843-.52-1.107-.903s-.397-.795-.397-1.237h1.614c.022.392.171.695.444.91.273.209.636.314 1.087.314.437 0 .77-.083.998-.246.228-.17.342-.388.342-.657zm6.344 2.147c-1.053 0-1.908-.33-2.564-.992-.652-.665-.978-1.549-.978-2.652v-.205c0-.738.142-1.397.424-1.975.287-.584.688-1.037 1.203-1.36.515-.324 1.09-.486 1.723-.486 1.007 0 1.784.321 2.331.964.552.642.827 1.551.827 2.727v.67h-4.833c.05.61.253 1.094.609 1.45.36.355.811.532 1.353.532.761 0 1.381-.307 1.86-.922l.895.854c-.296.442-.693.786-1.189 1.032-.493.242-1.046.363-1.661.363zm-.199-6.337c-.455 0-.825.16-1.107.478-.278.32-.456.764-.533 1.333h3.165v-.123c-.037-.556-.185-.975-.445-1.258-.259-.287-.619-.43-1.08-.43zm8.607 4.19c0-.296-.123-.522-.369-.677-.242-.155-.645-.291-1.21-.41-.565-.118-1.037-.269-1.415-.45-.83-.402-1.245-.983-1.245-1.744 0-.638.269-1.171.807-1.6.538-.428 1.221-.642 2.051-.642.884 0 1.597.218 2.14.656.546.438.82 1.005.82 1.702h-1.661c0-.319-.119-.583-.356-.793-.237-.214-.551-.321-.943-.321-.365 0-.663.084-.896.253-.228.169-.341.394-.341.677 0 .255.107.453.321.594.214.142.647.285 1.299.431.651.141 1.162.312 1.531.513.374.196.649.433.827.71.182.279.273.616.273 1.012 0 .666-.275 1.206-.827 1.62-.551.41-1.273.616-2.167.616-.606 0-1.146-.11-1.62-.328-.474-.22-.843-.52-1.107-.903-.265-.383-.397-.795-.397-1.237h1.614c.022.392.171.695.444.91.273.209.636.314 1.087.314.437 0 .77-.083.998-.246.228-.17.342-.388.342-.657zm12.304-.307h-3.855L128.571 45h-1.798l3.76-9.953h1.552L135.852 45h-1.805l-.814-2.317zm-3.37-1.395h2.885l-1.442-4.129-1.443 4.13zm9.229 1.607l1.565-5.292h1.716L139.81 45h-1.443l-2.584-7.397h1.723l1.586 5.291zM147.726 45c-.073-.141-.137-.371-.192-.69-.528.551-1.176.827-1.941.827-.743 0-1.349-.212-1.819-.636-.469-.424-.704-.948-.704-1.572 0-.789.292-1.393.875-1.812.588-.424 1.427-.636 2.516-.636h1.018v-.485c0-.383-.107-.688-.321-.916-.214-.232-.54-.349-.977-.349-.379 0-.688.096-.93.288-.242.186-.362.426-.362.717h-1.661c0-.405.134-.783.403-1.134.269-.356.633-.634 1.094-.834.464-.2.982-.301 1.551-.301.866 0 1.557.218 2.072.656.515.433.779 1.044.793 1.832v3.336c0 .665.093 1.196.28 1.593V45h-1.695zm-1.826-1.196c.329 0 .636-.08.923-.24.292-.16.511-.373.656-.642v-1.395h-.895c-.615 0-1.078.107-1.388.322-.31.214-.465.517-.465.909 0 .319.105.574.315.765.214.187.499.28.854.28zM152.647 45h-1.661v-7.397h1.661V45zm-1.763-9.317c0-.256.08-.468.239-.636.164-.169.397-.253.697-.253.301 0 .534.084.698.253.164.169.246.38.246.636 0 .25-.082.46-.246.629-.164.164-.397.246-.698.246-.3 0-.533-.082-.697-.246-.159-.17-.239-.379-.239-.63zM156.229 45h-1.661V34.5h1.661V45zm6.235 0c-.073-.141-.137-.371-.192-.69-.528.551-1.175.827-1.941.827-.743 0-1.349-.212-1.818-.636-.47-.424-.704-.948-.704-1.572 0-.789.291-1.393.875-1.812.587-.424 1.426-.636 2.515-.636h1.019v-.485c0-.383-.107-.688-.322-.916-.214-.232-.54-.349-.977-.349-.378 0-.688.096-.93.288-.241.186-.362.426-.362.717h-1.661c0-.405.134-.783.403-1.134.269-.356.634-.634 1.094-.834.465-.2.982-.301 1.552-.301.866 0 1.556.218 2.071.656.515.433.779 1.044.793 1.832v3.336c0 .665.093 1.196.28 1.593V45h-1.695zm-1.825-1.196c.328 0 .635-.08.923-.24.291-.16.51-.373.656-.642v-1.395h-.896c-.615 0-1.078.107-1.387.322-.31.214-.465.517-.465.909 0 .319.105.574.314.765.214.187.499.28.855.28zm11.47-2.427c0 1.148-.257 2.062-.772 2.741-.511.68-1.215 1.019-2.112 1.019-.866 0-1.541-.313-2.024-.937l-.082.8h-1.504V34.5h1.661v3.815c.479-.566 1.124-.848 1.935-.848.902 0 1.611.335 2.126 1.005.515.67.772 1.606.772 2.81v.095zm-1.661-.144c0-.802-.141-1.403-.424-1.804-.282-.401-.692-.602-1.23-.602-.72 0-1.226.315-1.518.944v3.048c.297.643.807.964 1.532.964.519 0 .92-.194 1.203-.58.282-.388.428-.974.437-1.758v-.212zM175.274 45h-1.661V34.5h1.661V45zm5.073.137c-1.053 0-1.908-.33-2.564-.992-.651-.665-.977-1.549-.977-2.652v-.205c0-.738.141-1.397.423-1.975.288-.584.689-1.037 1.204-1.36.515-.324 1.089-.486 1.722-.486 1.007 0 1.784.321 2.331.964.552.642.827 1.551.827 2.727v.67h-4.833c.051.61.253 1.094.609 1.45.36.355.811.532 1.353.532.761 0 1.381-.307 1.86-.922l.895.854c-.296.442-.692.786-1.189 1.032-.492.242-1.046.363-1.661.363zm-.199-6.337c-.455 0-.824.16-1.107.478-.278.32-.456.764-.533 1.333h3.165v-.123c-.037-.556-.185-.975-.444-1.258-.26-.287-.62-.43-1.081-.43z"/>
        <path fill="#333" d="M42.974 77.54l1.53-7.493h1.717L43.924 80H42.27l-1.894-7.267L38.441 80h-1.66l-2.298-9.953H36.2l1.545 7.478 1.9-7.478h1.45l1.88 7.492zM51.512 80c-.073-.141-.137-.371-.192-.69-.528.551-1.175.827-1.941.827-.743 0-1.35-.212-1.819-.636-.469-.424-.704-.948-.704-1.572 0-.789.292-1.392.875-1.812.588-.424 1.427-.636 2.516-.636h1.019v-.485c0-.383-.108-.688-.322-.916-.214-.232-.54-.349-.977-.349-.378 0-.688.096-.93.288-.241.186-.362.426-.362.717h-1.661c0-.405.134-.784.403-1.134.269-.356.633-.634 1.094-.834.465-.2.982-.301 1.551-.301.866 0 1.557.219 2.072.656.515.433.78 1.044.793 1.832v3.336c0 .665.093 1.196.28 1.593V80h-1.695zm-1.825-1.196c.328 0 .635-.08.922-.24.292-.16.51-.373.657-.642v-1.395h-.896c-.615 0-1.078.107-1.388.322-.31.214-.464.517-.464.909 0 .319.104.574.314.765.214.187.5.28.855.28zm8.852-4.683c-.219-.036-.444-.055-.677-.055-.76 0-1.273.292-1.538.875V80h-1.66v-7.397h1.585l.041.828c.401-.643.957-.964 1.668-.964.237 0 .433.032.588.096l-.007 1.558zm4.17 6.016c-1.053 0-1.907-.33-2.564-.992-.651-.665-.977-1.549-.977-2.652v-.205c0-.738.141-1.397.424-1.975.287-.584.688-1.037 1.203-1.36.515-.324 1.09-.486 1.723-.486 1.007 0 1.784.321 2.33.964.552.642.828 1.551.828 2.727v.67h-4.833c.05.61.253 1.094.608 1.45.36.355.811.532 1.354.532.76 0 1.38-.307 1.86-.922l.895.854c-.297.442-.693.786-1.19 1.032-.492.242-1.046.363-1.661.363zm-.198-6.337c-.456 0-.825.16-1.108.478-.278.32-.455.764-.533 1.333h3.165v-.123c-.036-.556-.184-.975-.444-1.257-.26-.288-.62-.431-1.08-.431zm6.097-.39c.543-.629 1.229-.943 2.058-.943 1.577 0 2.377.9 2.4 2.7V80h-1.662v-4.772c0-.51-.111-.87-.335-1.08-.218-.214-.542-.32-.97-.32-.666 0-1.163.295-1.49.888V80h-1.662V69.5h1.661v3.91zm5.831 2.823c0-.724.144-1.376.431-1.955.287-.583.69-1.03 1.21-1.34.52-.314 1.117-.471 1.791-.471.998 0 1.807.321 2.427.964.624.642.961 1.495 1.012 2.556l.006.39c0 .73-.14 1.38-.423 1.955-.278.574-.68 1.019-1.204 1.333-.52.314-1.12.472-1.804.472-1.044 0-1.88-.347-2.509-1.04-.624-.697-.937-1.624-.937-2.782v-.082zm1.662.144c0 .761.157 1.358.471 1.791.315.428.752.642 1.313.642.56 0 .995-.218 1.305-.656.315-.437.472-1.078.472-1.92 0-.748-.162-1.34-.485-1.778-.32-.437-.755-.656-1.306-.656-.542 0-.973.216-1.292.65-.319.428-.478 1.07-.478 1.927zm11.101 2.898c-.487.575-1.18.862-2.078.862-.802 0-1.41-.235-1.825-.704-.41-.47-.615-1.149-.615-2.038v-4.791h1.66v4.771c0 .939.39 1.408 1.17 1.408.806 0 1.35-.29 1.633-.868v-5.312h1.662V80h-1.566l-.04-.725zm7.445-1.285c0-.296-.124-.522-.37-.676-.241-.155-.645-.292-1.21-.41-.565-.12-1.036-.27-1.415-.452-.83-.4-1.244-.982-1.244-1.743 0-.638.27-1.171.807-1.6.538-.428 1.221-.642 2.05-.642.885 0 1.598.219 2.14.656.547.438.82 1.005.82 1.702h-1.66c0-.319-.119-.583-.356-.793-.237-.214-.551-.321-.943-.321-.365 0-.663.084-.896.253-.228.168-.342.394-.342.677 0 .255.107.453.322.594.214.142.647.285 1.298.431.652.141 1.163.312 1.532.513.373.196.65.433.827.71.182.279.273.616.273 1.012 0 .666-.275 1.206-.827 1.62-.551.41-1.274.616-2.167.616-.606 0-1.146-.11-1.62-.328-.474-.22-.843-.52-1.107-.903-.265-.383-.397-.795-.397-1.237h1.613c.023.392.171.695.445.91.273.209.636.314 1.087.314.437 0 .77-.082.998-.246.228-.17.341-.388.341-.657zm6.343 2.147c-1.052 0-1.907-.33-2.563-.992-.652-.665-.978-1.549-.978-2.652v-.205c0-.738.142-1.397.424-1.975.287-.584.688-1.037 1.203-1.36.515-.324 1.089-.486 1.723-.486 1.007 0 1.784.321 2.331.964.551.642.827 1.551.827 2.727v.67h-4.833c.05.61.253 1.094.608 1.45.36.355.812.532 1.354.532.761 0 1.381-.307 1.859-.922l.896.854c-.296.442-.693.786-1.19 1.032-.492.242-1.046.363-1.661.363zm-.198-6.337c-.456 0-.825.16-1.107.478-.278.32-.456.764-.534 1.333h3.165v-.123c-.036-.556-.184-.975-.444-1.257-.26-.288-.62-.431-1.08-.431zm12.339 6.2h-1.654v-7.991l-2.441.834V71.44l3.883-1.428h.212V80z"/>
        <path fill="#D90429" d="M40 91.994c-3.317 0-6 2.181-6 4.878 0 3.659 6 9.059 6 9.059s6-5.4 6-9.059c0-2.697-2.683-4.878-6-4.878zm0 6.62c-.568 0-1.113-.183-1.515-.51-.402-.327-.628-.77-.628-1.232 0-.462.226-.905.628-1.232.402-.327.947-.51 1.515-.51s1.113.183 1.515.51c.402.327.628.77.628 1.232 0 .462-.226.905-.628 1.232-.402.327-.947.51-1.515.51z"/>
        <path fill="#4F4F4F" d="M39.584 121.803c0-.375-.133-.664-.399-.867-.261-.204-.736-.409-1.423-.616-.688-.207-1.235-.437-1.64-.691-.778-.488-1.167-1.125-1.167-1.91 0-.688.28-1.254.838-1.699.563-.446 1.291-.668 2.185-.668.594 0 1.124.109 1.588.328.465.218.83.531 1.096.937.266.403.398.85.398 1.342h-1.476c0-.445-.14-.793-.422-1.043-.277-.254-.676-.381-1.195-.381-.485 0-.861.104-1.131.311-.266.207-.398.496-.398.867 0 .312.144.574.433.785.29.207.766.41 1.43.609.664.196 1.197.42 1.6.674.402.25.697.539.884.867.188.325.281.706.281 1.143 0 .711-.273 1.277-.82 1.699-.543.418-1.281.627-2.215.627-.617 0-1.185-.113-1.705-.34-.516-.23-.918-.547-1.207-.949-.285-.402-.428-.871-.428-1.406h1.483c0 .484.16.859.48 1.125.32.265.78.398 1.377.398.516 0 .903-.103 1.16-.31.262-.211.393-.489.393-.832zm8.197-.908c0 .98-.222 1.763-.668 2.349-.445.582-1.043.873-1.793.873-.695 0-1.252-.228-1.67-.685v3.006h-1.423v-8.778h1.312l.059.645c.418-.508.986-.762 1.705-.762.773 0 1.379.289 1.816.867.441.574.662 1.373.662 2.397v.088zm-1.418-.124c0-.632-.127-1.134-.38-1.505-.25-.371-.61-.557-1.079-.557-.582 0-1 .24-1.254.721v2.812c.258.492.68.738 1.266.738.453 0 .807-.181 1.06-.544.258-.368.387-.922.387-1.665zM52.78 124c-.062-.121-.117-.318-.164-.592-.453.473-1.008.709-1.664.709-.636 0-1.156-.181-1.558-.545-.403-.363-.604-.812-.604-1.347 0-.676.25-1.194.75-1.553.504-.363 1.223-.545 2.156-.545h.873v-.416c0-.328-.091-.59-.275-.785-.184-.199-.463-.299-.838-.299-.324 0-.59.082-.797.246-.207.16-.31.365-.31.615h-1.424c0-.347.115-.672.346-.972.23-.305.542-.543.937-.715.398-.172.842-.258 1.33-.258.742 0 1.334.187 1.776.562.44.372.667.895.68 1.571v2.859c0 .57.08 1.026.24 1.365v.1h-1.454zm-1.564-1.025c.281 0 .545-.069.79-.205.25-.137.438-.321.563-.551v-1.196h-.767c-.528 0-.924.092-1.19.276-.265.183-.398.443-.398.779 0 .274.09.492.27.656.183.161.427.241.732.241zm6.873.005c.355 0 .65-.103.885-.31.234-.207.359-.463.375-.768h1.342c-.016.395-.14.764-.37 1.108-.23.34-.543.609-.937.808-.395.2-.82.299-1.278.299-.886 0-1.59-.287-2.109-.861-.52-.574-.78-1.367-.78-2.379v-.147c0-.964.259-1.736.774-2.314.516-.582 1.219-.873 2.11-.873.753 0 1.367.221 1.84.662.476.438.726 1.014.75 1.729h-1.342c-.016-.364-.141-.663-.375-.897-.23-.234-.526-.351-.885-.351-.461 0-.816.168-1.066.503-.25.332-.377.838-.381 1.518v.229c0 .687.123 1.201.369 1.541.25.335.61.503 1.078.503zm6.469 1.137c-.903 0-1.635-.283-2.198-.849-.558-.571-.837-1.329-.837-2.274v-.176c0-.632.12-1.197.363-1.693.246-.5.59-.889 1.031-1.166.441-.277.934-.416 1.477-.416.863 0 1.529.275 1.998.826.472.551.709 1.33.709 2.338v.574h-4.143c.043.524.217.938.521 1.242.31.305.696.457 1.16.457.653 0 1.184-.263 1.594-.791l.768.733c-.254.379-.594.674-1.02.885-.421.207-.896.31-1.423.31zm-.17-5.431c-.39 0-.707.136-.95.41-.238.273-.39.654-.456 1.142h2.712v-.105c-.03-.477-.158-.836-.38-1.078-.223-.246-.532-.369-.926-.369zm10.6 5.314c-.063-.121-.118-.318-.165-.592-.453.473-1.008.709-1.664.709-.636 0-1.156-.181-1.558-.545-.403-.363-.604-.812-.604-1.347 0-.676.25-1.194.75-1.553.504-.363 1.223-.545 2.156-.545h.873v-.416c0-.328-.091-.59-.275-.785-.184-.199-.463-.299-.838-.299-.324 0-.59.082-.797.246-.207.16-.31.365-.31.615H71.13c0-.347.115-.672.346-.972.23-.305.542-.543.937-.715.398-.172.842-.258 1.33-.258.742 0 1.334.187 1.775.562.442.372.668.895.68 1.571v2.859c0 .57.08 1.026.24 1.365v.1h-1.453zm-1.565-1.025c.281 0 .545-.069.79-.205.25-.137.438-.321.563-.551v-1.196h-.767c-.527 0-.924.092-1.19.276-.265.183-.398.443-.398.779 0 .274.09.492.27.656.183.161.427.241.732.241zm6.41-.78l1.342-4.535h1.47L80.447 124h-1.236l-2.215-6.34h1.477l1.359 4.535zm7.4 1.805c-.062-.121-.117-.318-.164-.592-.453.473-1.007.709-1.664.709-.636 0-1.156-.181-1.558-.545-.403-.363-.604-.812-.604-1.347 0-.676.25-1.194.75-1.553.504-.363 1.223-.545 2.156-.545h.874v-.416c0-.328-.092-.59-.276-.785-.183-.199-.463-.299-.838-.299-.324 0-.59.082-.797.246-.207.16-.31.365-.31.615h-1.424c0-.347.115-.672.346-.972.23-.305.543-.543.937-.715.399-.172.842-.258 1.33-.258.742 0 1.334.187 1.776.562.441.372.668.895.68 1.571v2.859c0 .57.08 1.026.24 1.365v.1h-1.454zm-1.564-1.025c.281 0 .545-.069.791-.205.25-.137.438-.321.563-.551v-1.196h-.768c-.527 0-.924.092-1.19.276-.265.183-.398.443-.398.779 0 .274.09.492.27.656.183.161.427.241.732.241zM91.451 124h-1.424v-6.34h1.424V124zm-1.511-7.986c0-.219.068-.401.204-.545.141-.145.34-.217.598-.217.258 0 .457.072.598.217.14.144.21.326.21.545 0 .215-.07.394-.21.539-.14.14-.34.211-.598.211-.258 0-.457-.071-.598-.211-.136-.145-.205-.324-.205-.539zM94.521 124h-1.424v-9h1.424v9zm5.343 0c-.062-.121-.117-.318-.164-.592-.453.473-1.008.709-1.664.709-.637 0-1.156-.181-1.559-.545-.402-.363-.603-.812-.603-1.347 0-.676.25-1.194.75-1.553.504-.363 1.223-.545 2.156-.545h.873v-.416c0-.328-.091-.59-.275-.785-.184-.199-.463-.299-.838-.299-.324 0-.59.082-.797.246-.207.16-.31.365-.31.615H96.01c0-.347.115-.672.346-.972.23-.305.542-.543.937-.715.398-.172.842-.258 1.33-.258.742 0 1.334.187 1.775.562.442.372.668.895.68 1.571v2.859c0 .57.08 1.026.24 1.365v.1h-1.453zm-1.564-1.025c.281 0 .545-.069.79-.205.25-.137.438-.321.563-.551v-1.196h-.767c-.528 0-.924.092-1.19.276-.265.183-.398.443-.398.779 0 .274.09.492.27.656.183.161.427.241.732.241zm9.832-2.08c0 .984-.221 1.767-.662 2.349-.438.582-1.041.873-1.811.873-.742 0-1.32-.267-1.734-.803l-.071.686h-1.289v-9h1.424v3.27c.41-.485.963-.727 1.658-.727.774 0 1.381.287 1.823.861.441.575.662 1.377.662 2.408v.083zm-1.424-.124c0-.687-.121-1.203-.363-1.546-.242-.344-.594-.516-1.055-.516-.617 0-1.051.27-1.301.809v2.613c.254.551.692.826 1.313.826.445 0 .789-.166 1.031-.498.242-.332.367-.834.375-1.506v-.182zm4.137 3.229h-1.424v-9h1.424v9zm4.347.117c-.902 0-1.634-.283-2.197-.849-.558-.571-.838-1.329-.838-2.274v-.176c0-.632.121-1.197.363-1.693.247-.5.59-.889 1.032-1.166.441-.277.933-.416 1.476-.416.864 0 1.53.275 1.998.826.473.551.709 1.33.709 2.338v.574h-4.142c.043.524.217.938.521 1.242.309.305.696.457 1.16.457.653 0 1.184-.263 1.594-.791l.768.733c-.254.379-.594.674-1.02.885-.422.207-.896.31-1.424.31zm-.17-5.431c-.39 0-.707.136-.949.41-.238.273-.39.654-.457 1.142h2.713v-.105c-.031-.477-.158-.836-.381-1.078-.222-.246-.531-.369-.926-.369zm9.575 2.261h-3.077v-1.148h3.077v1.148zm7.927 3.053h-1.418v-6.85l-2.091.715v-1.201l3.328-1.225h.181V124zm8.526-3.592c0 1.227-.231 2.153-.692 2.778-.457.621-1.154.931-2.091.931-.922 0-1.618-.303-2.086-.908-.465-.609-.703-1.51-.715-2.701v-1.477c0-1.226.228-2.146.685-2.76.461-.613 1.162-.919 2.104-.919.933 0 1.629.298 2.086.896.461.598.697 1.492.709 2.684v1.476zm-1.424-1.594c0-.8-.109-1.386-.328-1.757-.219-.375-.567-.563-1.043-.563-.465 0-.807.178-1.026.533-.218.352-.334.903-.345 1.653v1.933c0 .797.111 1.391.334 1.782.222.39.572.585 1.049.585.457 0 .794-.179 1.013-.539.219-.363.334-.929.346-1.699v-1.928zm8.244 1.594c0 1.227-.23 2.153-.691 2.778-.457.621-1.155.931-2.092.931-.922 0-1.617-.303-2.086-.908-.465-.609-.703-1.51-.715-2.701v-1.477c0-1.226.229-2.146.686-2.76.461-.613 1.162-.919 2.103-.919.934 0 1.629.298 2.086.896.461.598.697 1.492.709 2.684v1.476zm-1.424-1.594c0-.8-.109-1.386-.328-1.757-.219-.375-.566-.563-1.043-.563-.465 0-.806.178-1.025.533-.219.352-.334.903-.346 1.653v1.933c0 .797.111 1.391.334 1.782.223.39.572.585 1.049.585.457 0 .795-.179 1.014-.539.218-.363.334-.929.345-1.699v-1.928zm12.68 1.143c0 .809-.129 1.51-.387 2.104-.254.589-.611 1.058-1.072 1.406l1.465 1.142-.961.868-1.817-1.436c-.238.051-.494.076-.767.076-.688 0-1.303-.168-1.846-.504-.539-.34-.957-.822-1.254-1.447-.293-.625-.441-1.346-.445-2.162v-.481c0-.832.146-1.566.439-2.203.297-.636.713-1.123 1.248-1.459.54-.34 1.155-.509 1.846-.509.703 0 1.322.168 1.858.503.539.333.955.813 1.248 1.442.293.625.441 1.353.445 2.185v.475zm-1.488-.445c0-.961-.18-1.69-.539-2.186-.36-.496-.868-.744-1.524-.744-.637 0-1.137.252-1.5.756-.359.5-.543 1.207-.551 2.121v.498c0 .922.18 1.643.539 2.162.364.52.872.779 1.524.779.66 0 1.166-.25 1.517-.75.356-.5.534-1.23.534-2.191v-.445zm6.697 3.867c-.418.492-1.012.738-1.781.738-.688 0-1.209-.201-1.565-.603-.351-.403-.527-.985-.527-1.746v-4.108h1.424v4.09c0 .805.334 1.207 1.002 1.207.691 0 1.158-.248 1.4-.744v-4.553h1.424V124h-1.342l-.035-.621zm4.342.621h-1.424v-6.34h1.424V124zm-1.512-7.986c0-.219.068-.401.205-.545.141-.145.34-.217.598-.217.258 0 .457.072.597.217.141.144.211.326.211.545 0 .215-.07.394-.211.539-.14.14-.339.211-.597.211-.258 0-.457-.071-.598-.211-.137-.145-.205-.324-.205-.539zm4.389 1.646l.041.733c.468-.567 1.084-.85 1.845-.85 1.321 0 1.993.756 2.016 2.268V124h-1.424v-4.107c0-.403-.088-.7-.263-.891-.172-.195-.456-.293-.85-.293-.574 0-1.002.26-1.283.779V124h-1.424v-6.34h1.342zm7.142-1.541v1.541h1.119v1.055h-1.119v3.539c0 .242.047.418.141.527.098.106.269.158.516.158.164 0 .33-.019.498-.058v1.101c-.325.09-.637.135-.938.135-1.094 0-1.641-.603-1.641-1.81v-3.592h-1.043v-1.055h1.043v-1.541h1.424zm6 7.881c-.062-.121-.117-.318-.164-.592-.453.473-1.008.709-1.664.709-.637 0-1.156-.181-1.558-.545-.403-.363-.604-.812-.604-1.347 0-.676.25-1.194.75-1.553.504-.363 1.223-.545 2.156-.545h.873v-.416c0-.328-.091-.59-.275-.785-.184-.199-.463-.299-.838-.299-.324 0-.59.082-.797.246-.207.16-.31.365-.31.615h-1.424c0-.347.115-.672.346-.972.23-.305.542-.543.937-.715.398-.172.842-.258 1.33-.258.742 0 1.334.187 1.775.562.442.372.668.895.68 1.571v2.859c0 .57.08 1.026.24 1.365v.1h-1.453zm-1.564-1.025c.281 0 .545-.069.791-.205.25-.137.437-.321.562-.551v-1.196h-.767c-.528 0-.924.092-1.19.276-.265.183-.398.443-.398.779 0 .274.09.492.269.656.184.161.428.241.733.241zm5.783 1.025h-1.424v-9h1.424v9z"/>
        <rect width="75" height="38" x="253" y="70" fill="#009914" rx="8"/>
        <path fill="#fff" d="M263.986 93v-8.531h2.924c.965 0 1.699.193 2.203.58.504.386.756.963.756 1.728 0 .391-.105.742-.316 1.055-.211.313-.52.555-.926.727.461.125.816.36 1.066.709.254.343.381.757.381 1.242 0 .8-.258 1.416-.773 1.846-.512.43-1.246.644-2.203.644h-3.112zm1.483-3.85v2.666h1.646c.465 0 .828-.115 1.09-.345.262-.23.393-.551.393-.961 0-.887-.453-1.34-1.36-1.36h-1.769zm0-1.09h1.453c.461 0 .82-.103 1.078-.31.262-.21.393-.508.393-.89 0-.422-.122-.727-.364-.915-.238-.187-.611-.28-1.119-.28h-1.441v2.395zm5.683 1.712c0-.622.123-1.18.369-1.676.247-.5.592-.883 1.038-1.149.445-.27.957-.404 1.535-.404.855 0 1.549.275 2.08.826.535.55.824 1.281.867 2.192l.006.333c0 .625-.121 1.184-.363 1.676-.239.493-.582.873-1.032 1.143-.445.27-.961.404-1.547.404-.894 0-1.611-.297-2.15-.89-.535-.598-.803-1.393-.803-2.385v-.07zm1.424.122c0 .653.135 1.165.404 1.536.27.367.645.55 1.125.55.481 0 .854-.187 1.12-.562.269-.375.404-.924.404-1.647 0-.64-.139-1.148-.416-1.523-.274-.375-.647-.563-1.119-.563-.465 0-.834.186-1.108.557-.273.367-.41.918-.41 1.652zm5.408-.123c0-.62.123-1.18.37-1.675.246-.5.591-.883 1.037-1.149.445-.27.957-.404 1.535-.404.855 0 1.549.275 2.08.826.535.55.824 1.281.867 2.192l.006.333c0 .625-.121 1.184-.363 1.676-.239.493-.582.873-1.032 1.143-.445.27-.961.404-1.546.404-.895 0-1.612-.297-2.151-.89-.535-.598-.803-1.393-.803-2.385v-.07zm1.424.123c0 .653.135 1.165.404 1.536.27.367.645.55 1.126.55.48 0 .853-.187 1.119-.562.269-.375.404-.924.404-1.647 0-.64-.139-1.148-.416-1.523-.274-.375-.647-.563-1.119-.563-.465 0-.834.186-1.108.557-.273.367-.41.918-.41 1.652zm7.735.387l-.633.65V93h-1.424v-9h1.424v5.191l.445-.556 1.752-1.975h1.711l-2.356 2.643L290.67 93h-1.647l-1.88-2.719zM301.246 93h-1.482l-3.803-6.053V93h-1.482v-8.531h1.482l3.814 6.076v-6.076h1.471V93zm1.348-3.228c0-.622.123-1.18.369-1.676.246-.5.592-.883 1.037-1.149.445-.27.957-.404 1.535-.404.856 0 1.549.275 2.08.826.535.55.824 1.281.867 2.192l.006.333c0 .625-.121 1.184-.363 1.676-.238.493-.582.873-1.031 1.143-.446.27-.961.404-1.547.404-.895 0-1.611-.297-2.151-.89-.535-.598-.802-1.393-.802-2.385v-.07zm1.424.122c0 .653.134 1.165.404 1.536.269.367.644.55 1.125.55.48 0 .853-.187 1.119-.562.27-.375.404-.924.404-1.647 0-.64-.138-1.148-.416-1.523-.273-.375-.646-.563-1.119-.563-.465 0-.834.186-1.107.557-.274.367-.41.918-.41 1.652zm11.244 1.143l1.008-4.377h1.388L315.93 93h-1.172l-1.36-4.353L312.062 93h-1.171l-1.735-6.34h1.389l1.025 4.33 1.301-4.33h1.072l1.319 4.377z"/>
        <rect width="75" height="38" x="251" y="157" fill="#009914" rx="8"/>
        <path fill="#fff" d="M261.986 180v-8.531h2.924c.965 0 1.699.193 2.203.58.504.387.756.963.756 1.728 0 .391-.105.743-.316 1.055-.211.313-.52.555-.926.727.461.125.816.361 1.066.709.254.343.381.757.381 1.242 0 .801-.258 1.416-.773 1.845-.512.43-1.246.645-2.203.645h-3.112zm1.483-3.85v2.666h1.646c.465 0 .828-.115 1.09-.345.262-.231.393-.551.393-.961 0-.887-.453-1.34-1.36-1.36h-1.769zm0-1.089h1.453c.461 0 .82-.104 1.078-.311.262-.211.393-.508.393-.891 0-.421-.122-.726-.364-.914-.238-.187-.611-.281-1.119-.281h-1.441v2.397zm5.683 1.71c0-.621.123-1.179.369-1.675.247-.5.592-.883 1.038-1.149.445-.269.957-.404 1.535-.404.855 0 1.549.275 2.08.826.535.551.824 1.281.867 2.192l.006.334c0 .625-.121 1.183-.363 1.675-.239.492-.582.873-1.032 1.143-.445.269-.961.404-1.547.404-.894 0-1.611-.297-2.15-.89-.535-.598-.803-1.393-.803-2.385v-.071zm1.424.124c0 .652.135 1.164.404 1.535.27.367.645.55 1.125.55.481 0 .854-.187 1.12-.562.269-.375.404-.924.404-1.647 0-.64-.139-1.148-.416-1.523-.274-.375-.647-.562-1.119-.562-.465 0-.834.185-1.108.556-.273.367-.41.918-.41 1.653zm5.408-.124c0-.621.123-1.179.37-1.675.246-.5.591-.883 1.037-1.149.445-.269.957-.404 1.535-.404.855 0 1.549.275 2.08.826.535.551.824 1.281.867 2.192l.006.334c0 .625-.121 1.183-.363 1.675-.239.492-.582.873-1.032 1.143-.445.269-.961.404-1.546.404-.895 0-1.612-.297-2.151-.89-.535-.598-.803-1.393-.803-2.385v-.071zm1.424.124c0 .652.135 1.164.404 1.535.27.367.645.55 1.126.55.48 0 .853-.187 1.119-.562.269-.375.404-.924.404-1.647 0-.64-.139-1.148-.416-1.523-.274-.375-.647-.562-1.119-.562-.465 0-.834.185-1.108.556-.273.367-.41.918-.41 1.653zm7.735.386l-.633.651V180h-1.424v-9h1.424v5.191l.445-.556 1.752-1.975h1.711l-2.356 2.643L288.67 180h-1.647l-1.88-2.719zM299.246 180h-1.482l-3.803-6.053V180h-1.482v-8.531h1.482l3.814 6.076v-6.076h1.471V180zm1.348-3.229c0-.621.123-1.179.369-1.675.246-.5.592-.883 1.037-1.149.445-.269.957-.404 1.535-.404.856 0 1.549.275 2.08.826.535.551.824 1.281.867 2.192l.006.334c0 .625-.121 1.183-.363 1.675-.238.492-.582.873-1.031 1.143-.446.269-.961.404-1.547.404-.895 0-1.611-.297-2.151-.89-.535-.598-.802-1.393-.802-2.385v-.071zm1.424.124c0 .652.134 1.164.404 1.535.269.367.644.55 1.125.55.48 0 .853-.187 1.119-.562.27-.375.404-.924.404-1.647 0-.64-.138-1.148-.416-1.523-.273-.375-.646-.562-1.119-.562-.465 0-.834.185-1.107.556-.274.367-.41.918-.41 1.653zm11.244 1.142l1.008-4.377h1.388L313.93 180h-1.172l-1.36-4.354-1.336 4.354h-1.171l-1.735-6.34h1.389l1.025 4.33 1.301-4.33h1.072l1.319 4.377z"/>
        <path fill="#4F4F4F" d="M113.734 183.26l-3.41 7.74h-1.494l3.404-7.389h-4.412v-1.142h5.912v.791zm6.282 5.021l-.633.651V191h-1.424v-9h1.424v5.191l.445-.556 1.752-1.975h1.711l-2.355 2.643 2.607 3.697h-1.647l-1.88-2.719zm5.548-3.621l.041.662c.446-.519 1.055-.779 1.829-.779.847 0 1.427.324 1.74.973.461-.649 1.109-.973 1.945-.973.699 0 1.219.193 1.559.58.343.387.519.957.527 1.711V191h-1.424v-4.125c0-.402-.088-.697-.263-.885-.176-.187-.467-.281-.873-.281-.325 0-.59.088-.797.264-.203.172-.346.398-.428.679l.006 4.348h-1.424v-4.172c-.02-.746-.4-1.119-1.143-1.119-.57 0-.974.232-1.213.697V191h-1.423v-6.34h1.341zm15.879 6.34c-.062-.121-.117-.318-.164-.592-.453.473-1.008.709-1.664.709-.636 0-1.156-.181-1.558-.545-.403-.363-.604-.812-.604-1.347 0-.676.25-1.194.75-1.553.504-.363 1.223-.545 2.156-.545h.873v-.416c0-.328-.091-.59-.275-.785-.184-.199-.463-.299-.838-.299-.324 0-.59.082-.797.246-.207.16-.31.365-.31.615h-1.424c0-.347.115-.672.346-.972.23-.305.543-.543.937-.715.399-.172.842-.258 1.33-.258.742 0 1.334.187 1.776.562.441.372.668.895.679 1.571v2.859c0 .57.08 1.026.24 1.365v.1h-1.453zm-1.564-1.025c.281 0 .545-.069.791-.205.25-.137.437-.321.562-.551v-1.196h-.767c-.527 0-.924.092-1.19.276-.265.183-.398.443-.398.779 0 .274.09.492.269.656.184.161.428.241.733.241zm9.838-.938l1.008-4.377h1.388l-1.728 6.34h-1.172l-1.359-4.354-1.336 4.354h-1.172l-1.735-6.34H145l1.025 4.33 1.301-4.33h1.072l1.319 4.377zm7.137 1.963c-.063-.121-.118-.318-.165-.592-.453.473-1.007.709-1.664.709-.636 0-1.156-.181-1.558-.545-.403-.363-.604-.812-.604-1.347 0-.676.25-1.194.75-1.553.504-.363 1.223-.545 2.157-.545h.873v-.416c0-.328-.092-.59-.276-.785-.183-.199-.463-.299-.838-.299-.324 0-.59.082-.797.246-.207.16-.31.365-.31.615h-1.424c0-.347.115-.672.346-.972.23-.305.543-.543.937-.715.399-.172.842-.258 1.33-.258.743 0 1.334.187 1.776.562.441.372.668.895.679 1.571v2.859c0 .57.08 1.026.241 1.365v.1h-1.453zm-1.565-1.025c.281 0 .545-.069.791-.205.25-.137.438-.321.563-.551v-1.196h-.768c-.527 0-.924.092-1.189.276-.266.183-.399.443-.399.779 0 .274.09.492.27.656.183.161.427.241.732.241zm6.393-1.014l1.289-4.301h1.517l-2.519 7.301c-.387 1.066-1.043 1.6-1.969 1.6-.207 0-.436-.036-.686-.106v-1.101l.27.017c.359 0 .629-.066.809-.199.183-.129.328-.348.433-.656l.205-.545-2.226-6.311h1.535l1.342 4.301z"/>
        <path fill="#BDBDBD" d="M97.492 191.582h-.978v-10.113h.978v10.113z"/>
        <path fill="#4F4F4F" d="M61.652 188.223c-.086.91-.422 1.621-1.008 2.132-.585.508-1.365.762-2.337.762-.68 0-1.28-.16-1.8-.48-.515-.325-.913-.783-1.194-1.377-.282-.594-.428-1.283-.44-2.069v-.796c0-.805.143-1.514.428-2.127.285-.614.693-1.086 1.224-1.418.535-.332 1.153-.498 1.852-.498.941 0 1.7.255 2.273.767.575.512.909 1.235 1.002 2.168h-1.476c-.07-.613-.25-1.055-.54-1.324-.284-.274-.704-.41-1.259-.41-.645 0-1.14.236-1.488.709-.344.468-.52 1.158-.528 2.068v.756c0 .922.164 1.625.492 2.109.332.485.817.727 1.454.727.582 0 1.02-.131 1.312-.393.293-.261.479-.697.557-1.306h1.476zm2.596-2.871c.465-.54 1.053-.809 1.764-.809 1.351 0 2.037.771 2.056 2.314V191h-1.424v-4.09c0-.437-.095-.746-.287-.926-.187-.183-.464-.275-.832-.275-.57 0-.996.254-1.277.762V191h-1.424v-9h1.424v3.352zm4.998 2.419c0-.621.123-1.179.37-1.675.245-.5.591-.883 1.036-1.149.446-.269.957-.404 1.535-.404.856 0 1.55.275 2.08.826.536.551.825 1.281.868 2.192l.006.334c0 .625-.122 1.183-.364 1.675-.238.492-.582.873-1.03 1.143-.446.269-.962.404-1.548.404-.894 0-1.611-.297-2.15-.89-.535-.598-.803-1.393-.803-2.385v-.071zm1.424.124c0 .652.135 1.164.404 1.535.27.367.645.55 1.125.55s.854-.187 1.12-.562c.269-.375.404-.924.404-1.647 0-.64-.139-1.148-.416-1.523-.274-.375-.647-.562-1.12-.562-.464 0-.834.185-1.107.556-.273.367-.41.918-.41 1.653zm7.014-3.235l.04.662c.446-.519 1.055-.779 1.829-.779.847 0 1.428.324 1.74.973.46-.649 1.11-.973 1.945-.973.7 0 1.219.193 1.559.58.344.387.52.957.527 1.711V191H83.9v-4.125c0-.402-.088-.697-.263-.885-.176-.187-.467-.281-.873-.281-.325 0-.59.088-.797.264-.203.172-.346.398-.428.679l.006 4.348H80.12v-4.172c-.02-.746-.4-1.119-1.142-1.119-.57 0-.975.232-1.213.697V191h-1.424v-6.34h1.342zm12.943 5.719c-.418.492-1.012.738-1.781.738-.688 0-1.21-.201-1.565-.603-.351-.403-.527-.985-.527-1.746v-4.108h1.424v4.09c0 .805.334 1.207 1.002 1.207.691 0 1.158-.248 1.4-.744v-4.553h1.424V191h-1.342l-.035-.621z"/>
        <path fill="#333" d="M42.974 165.539l1.53-7.492h1.717L43.924 168H42.27l-1.894-7.267L38.441 168h-1.66l-2.298-9.953H36.2l1.545 7.478 1.9-7.478h1.45l1.88 7.492zM51.512 168c-.073-.141-.137-.371-.192-.69-.528.551-1.175.827-1.941.827-.743 0-1.35-.212-1.819-.636-.469-.424-.704-.948-.704-1.572 0-.789.292-1.393.875-1.812.588-.424 1.427-.636 2.516-.636h1.019v-.485c0-.383-.108-.688-.322-.916-.214-.232-.54-.349-.977-.349-.378 0-.688.096-.93.288-.241.186-.362.426-.362.717h-1.661c0-.405.134-.784.403-1.134.269-.356.633-.634 1.094-.834.465-.201.982-.301 1.551-.301.866 0 1.557.219 2.072.656.515.433.78 1.044.793 1.832v3.336c0 .665.093 1.196.28 1.593V168h-1.695zm-1.825-1.196c.328 0 .635-.08.922-.24.292-.159.51-.373.657-.642v-1.395h-.896c-.615 0-1.078.107-1.388.322-.31.214-.464.517-.464.909 0 .319.104.574.314.765.214.187.5.281.855.281zm8.852-4.683c-.219-.036-.444-.055-.677-.055-.76 0-1.273.292-1.538.875V168h-1.66v-7.396h1.585l.041.827c.401-.643.957-.964 1.668-.964.237 0 .433.032.588.095l-.007 1.559zm4.17 6.016c-1.053 0-1.907-.331-2.564-.991-.651-.666-.977-1.55-.977-2.653v-.205c0-.738.141-1.397.424-1.976.287-.583.688-1.036 1.203-1.36.515-.323 1.09-.485 1.723-.485 1.007 0 1.784.321 2.33.964.552.642.828 1.551.828 2.727v.67h-4.833c.05.611.253 1.094.608 1.449.36.356.811.534 1.354.534.76 0 1.38-.308 1.86-.923l.895.854c-.297.442-.693.786-1.19 1.032-.492.242-1.046.363-1.661.363zm-.198-6.337c-.456 0-.825.159-1.108.478-.278.319-.455.764-.533 1.333h3.165v-.123c-.036-.556-.184-.975-.444-1.258-.26-.287-.62-.43-1.08-.43zm6.097-.39c.543-.629 1.229-.943 2.058-.943 1.577 0 2.377.9 2.4 2.7V168h-1.662v-4.771c0-.511-.111-.871-.335-1.081-.218-.214-.542-.321-.97-.321-.666 0-1.163.296-1.49.889V168h-1.662v-10.5h1.661v3.91zm5.831 2.823c0-.724.144-1.376.431-1.955.287-.583.69-1.03 1.21-1.34.52-.314 1.117-.471 1.791-.471.998 0 1.807.321 2.427.964.624.642.961 1.494 1.012 2.556l.006.39c0 .729-.14 1.381-.423 1.955-.278.574-.68 1.019-1.204 1.333-.52.314-1.12.472-1.804.472-1.044 0-1.88-.347-2.509-1.039-.624-.698-.937-1.625-.937-2.783v-.082zm1.662.144c0 .761.157 1.358.471 1.791.315.428.752.643 1.313.643.56 0 .995-.219 1.305-.657.315-.437.472-1.078.472-1.921 0-.747-.162-1.339-.485-1.777-.32-.437-.755-.656-1.306-.656-.542 0-.973.216-1.292.649-.319.429-.478 1.071-.478 1.928zm11.101 2.898c-.487.575-1.18.862-2.078.862-.802 0-1.41-.235-1.825-.704-.41-.47-.615-1.149-.615-2.037v-4.792h1.66v4.771c0 .939.39 1.408 1.17 1.408.806 0 1.35-.289 1.633-.868v-5.311h1.662V168h-1.566l-.04-.725zm7.445-1.285c0-.296-.124-.522-.37-.677-.241-.154-.645-.291-1.21-.41-.565-.118-1.036-.269-1.415-.451-.83-.401-1.244-.982-1.244-1.743 0-.638.27-1.171.807-1.6.538-.428 1.221-.642 2.05-.642.885 0 1.598.219 2.14.656.547.438.82 1.005.82 1.702h-1.66c0-.319-.119-.583-.356-.793-.237-.214-.551-.321-.943-.321-.365 0-.663.084-.896.253-.228.168-.342.394-.342.677 0 .255.107.453.322.594.214.142.647.285 1.298.431.652.141 1.163.312 1.532.513.373.196.65.433.827.711.182.278.273.615.273 1.011 0 .666-.275 1.206-.827 1.62-.551.411-1.274.616-2.167.616-.606 0-1.146-.11-1.62-.328-.474-.219-.843-.52-1.107-.903-.265-.383-.397-.795-.397-1.237h1.613c.023.392.171.695.445.909.273.21.636.315 1.087.315.437 0 .77-.082.998-.247.228-.168.341-.387.341-.656zm6.343 2.147c-1.052 0-1.907-.331-2.563-.991-.652-.666-.978-1.55-.978-2.653v-.205c0-.738.142-1.397.424-1.976.287-.583.688-1.036 1.203-1.36.515-.323 1.089-.485 1.723-.485 1.007 0 1.784.321 2.331.964.551.642.827 1.551.827 2.727v.67h-4.833c.05.611.253 1.094.608 1.449.36.356.812.534 1.354.534.761 0 1.381-.308 1.859-.923l.896.854c-.296.442-.693.786-1.19 1.032-.492.242-1.046.363-1.661.363zm-.198-6.337c-.456 0-.825.159-1.107.478-.278.319-.456.764-.534 1.333h3.165v-.123c-.036-.556-.184-.975-.444-1.258-.26-.287-.62-.43-1.08-.43zm14.533 6.2h-6.692v-1.142l3.315-3.616c.479-.533.818-.977 1.019-1.333.205-.36.307-.72.307-1.08 0-.474-.134-.857-.403-1.148-.264-.292-.622-.438-1.073-.438-.538 0-.955.164-1.251.492-.296.328-.444.777-.444 1.347h-1.662c0-.606.137-1.151.411-1.634.278-.487.672-.866 1.182-1.135.515-.268 1.108-.403 1.778-.403.966 0 1.727.244 2.283.732.56.483.841 1.153.841 2.009 0 .497-.142 1.019-.424 1.566-.278.542-.736 1.16-1.374 1.852l-2.434 2.605h4.621V168z"/>
        <path fill="#D90429" d="M40 179c-3.317 0-6 2.348-6 5.25 0 3.938 6 9.75 6 9.75s6-5.812 6-9.75c0-2.902-2.683-5.25-6-5.25zm0 7.125c-.568 0-1.113-.198-1.515-.549-.402-.352-.628-.829-.628-1.326 0-.497.226-.974.628-1.326.402-.351.947-.549 1.515-.549s1.113.198 1.515.549c.402.352.628.829.628 1.326 0 .497-.226.974-.628 1.326-.402.351-.947.549-1.515.549z"/>
        <path fill="#4F4F4F" d="M39.494 209.803c0-.375-.133-.664-.398-.867-.262-.204-.737-.409-1.424-.616-.688-.207-1.234-.437-1.64-.691-.778-.488-1.167-1.125-1.167-1.91 0-.688.28-1.254.838-1.699.563-.446 1.291-.668 2.186-.668.593 0 1.123.109 1.588.328.464.218.83.531 1.095.937.266.403.399.85.399 1.342h-1.477c0-.445-.14-.793-.422-1.043-.277-.254-.675-.381-1.195-.381-.484 0-.861.104-1.13.311-.267.207-.4.496-.4.867 0 .312.145.574.434.785.29.207.766.41 1.43.609.664.196 1.197.42 1.6.674.402.25.697.539.884.867.188.325.282.706.282 1.143 0 .711-.274 1.277-.82 1.699-.544.418-1.282.627-2.216.627-.617 0-1.185-.113-1.705-.34-.515-.23-.918-.547-1.207-.949-.285-.402-.427-.871-.427-1.406h1.482c0 .484.16.859.48 1.125.32.265.78.398 1.377.398.516 0 .903-.103 1.16-.31.262-.211.393-.489.393-.832zm8.197-.908c0 .98-.222 1.763-.668 2.349-.445.582-1.043.873-1.793.873-.695 0-1.252-.228-1.67-.685v3.006h-1.423v-8.778h1.312l.059.645c.418-.508.986-.762 1.705-.762.773 0 1.379.289 1.816.867.442.574.662 1.373.662 2.397v.088zm-1.418-.124c0-.632-.127-1.134-.38-1.505-.25-.371-.61-.557-1.078-.557-.583 0-1 .24-1.255.721v2.812c.258.492.68.738 1.266.738.453 0 .807-.181 1.06-.544.258-.368.387-.922.387-1.665zM52.69 212c-.062-.121-.117-.318-.164-.592-.453.473-1.007.709-1.664.709-.636 0-1.156-.181-1.558-.545-.403-.363-.604-.812-.604-1.347 0-.676.25-1.194.75-1.553.504-.363 1.223-.545 2.157-.545h.872v-.416c0-.328-.091-.59-.275-.785-.184-.199-.463-.299-.838-.299-.324 0-.59.082-.797.246-.207.16-.31.365-.31.615h-1.424c0-.347.115-.672.346-.972.23-.305.543-.543.937-.715.399-.172.842-.258 1.33-.258.742 0 1.334.187 1.776.562.441.372.668.895.68 1.571v2.859c0 .57.08 1.026.24 1.365v.1H52.69zm-1.564-1.025c.281 0 .545-.069.791-.205.25-.137.438-.321.563-.551v-1.196h-.768c-.527 0-.924.092-1.19.276-.265.183-.398.443-.398.779 0 .274.09.492.27.656.183.161.427.241.732.241zm6.873.005c.355 0 .65-.103.885-.31.234-.207.36-.463.375-.768H60.6c-.016.395-.14.764-.37 1.108-.23.34-.542.609-.937.808-.395.2-.82.299-1.277.299-.887 0-1.59-.287-2.11-.861-.52-.574-.779-1.367-.779-2.379v-.147c0-.964.258-1.736.773-2.314.516-.582 1.22-.873 2.11-.873.754 0 1.367.221 1.84.662.476.438.726 1.014.75 1.729h-1.342c-.016-.364-.14-.663-.375-.897-.23-.234-.526-.351-.885-.351-.46 0-.816.168-1.066.503-.25.332-.377.838-.381 1.518v.229c0 .687.123 1.201.369 1.541.25.335.61.503 1.078.503zm6.469 1.137c-.902 0-1.635-.283-2.197-.849-.56-.571-.838-1.329-.838-2.274v-.176c0-.632.12-1.197.363-1.693.246-.5.59-.889 1.031-1.166.442-.277.934-.416 1.477-.416.863 0 1.529.275 1.998.826.472.551.709 1.33.709 2.338v.574h-4.143c.043.524.217.938.522 1.242.308.305.695.457 1.16.457.652 0 1.183-.263 1.594-.791l.767.733c-.254.379-.594.674-1.02.885-.421.207-.896.31-1.423.31zm-.17-5.431c-.39 0-.707.136-.95.41-.238.273-.39.654-.456 1.142h2.712v-.105c-.03-.477-.158-.836-.38-1.078-.223-.246-.532-.369-.926-.369zm10.6 5.314c-.063-.121-.118-.318-.165-.592-.453.473-1.007.709-1.664.709-.636 0-1.156-.181-1.558-.545-.403-.363-.604-.812-.604-1.347 0-.676.25-1.194.75-1.553.504-.363 1.223-.545 2.156-.545h.874v-.416c0-.328-.092-.59-.276-.785-.183-.199-.463-.299-.838-.299-.324 0-.59.082-.797.246-.207.16-.31.365-.31.615H71.04c0-.347.115-.672.346-.972.23-.305.543-.543.937-.715.399-.172.842-.258 1.33-.258.743 0 1.334.187 1.776.562.441.372.668.895.68 1.571v2.859c0 .57.08 1.026.24 1.365v.1h-1.453zm-1.565-1.025c.281 0 .545-.069.791-.205.25-.137.438-.321.563-.551v-1.196h-.768c-.527 0-.924.092-1.19.276-.265.183-.398.443-.398.779 0 .274.09.492.27.656.183.161.427.241.732.241zm6.41-.78l1.342-4.535h1.47L80.358 212h-1.236l-2.215-6.34h1.477l1.36 4.535zm7.4 1.805c-.062-.121-.117-.318-.163-.592-.454.473-1.008.709-1.665.709-.636 0-1.156-.181-1.558-.545-.403-.363-.604-.812-.604-1.347 0-.676.25-1.194.75-1.553.504-.363 1.223-.545 2.157-.545h.873v-.416c0-.328-.092-.59-.276-.785-.183-.199-.463-.299-.838-.299-.324 0-.59.082-.796.246-.208.16-.311.365-.311.615h-1.424c0-.347.115-.672.346-.972.23-.305.543-.543.937-.715.399-.172.842-.258 1.33-.258.743 0 1.334.187 1.776.562.441.372.668.895.68 1.571v2.859c0 .57.08 1.026.24 1.365v.1h-1.453zm-1.564-1.025c.281 0 .545-.069.791-.205.25-.137.438-.321.563-.551v-1.196h-.768c-.527 0-.924.092-1.19.276-.265.183-.398.443-.398.779 0 .274.09.492.27.656.183.161.427.241.732.241zM91.361 212h-1.424v-6.34h1.424V212zm-1.511-7.986c0-.219.068-.401.205-.545.14-.145.34-.217.597-.217.258 0 .457.072.598.217.14.144.21.326.21.545 0 .215-.07.394-.21.539-.14.14-.34.211-.598.211-.258 0-.457-.071-.597-.211-.137-.145-.205-.324-.205-.539zM94.432 212h-1.424v-9h1.424v9zm5.343 0c-.062-.121-.117-.318-.164-.592-.453.473-1.008.709-1.664.709-.636 0-1.156-.181-1.558-.545-.403-.363-.604-.812-.604-1.347 0-.676.25-1.194.75-1.553.504-.363 1.223-.545 2.156-.545h.873v-.416c0-.328-.091-.59-.275-.785-.183-.199-.463-.299-.838-.299-.324 0-.59.082-.797.246-.207.16-.31.365-.31.615H95.92c0-.347.115-.672.346-.972.23-.305.543-.543.937-.715.399-.172.842-.258 1.33-.258.742 0 1.334.187 1.776.562.441.372.668.895.679 1.571v2.859c0 .57.08 1.026.241 1.365v.1h-1.454zm-1.564-1.025c.281 0 .545-.069.791-.205.25-.137.438-.321.563-.551v-1.196h-.768c-.528 0-.924.092-1.19.276-.265.183-.398.443-.398.779 0 .274.09.492.27.656.183.161.427.241.732.241zm9.832-2.08c0 .984-.221 1.767-.662 2.349-.438.582-1.041.873-1.811.873-.742 0-1.32-.267-1.734-.803l-.07.686h-1.289v-9h1.423v3.27c.411-.485.963-.727 1.659-.727.773 0 1.38.287 1.822.861.441.575.662 1.377.662 2.408v.083zm-1.424-.124c0-.687-.121-1.203-.363-1.546-.242-.344-.594-.516-1.055-.516-.617 0-1.051.27-1.301.809v2.613c.254.551.692.826 1.313.826.445 0 .789-.166 1.031-.498.242-.332.367-.834.375-1.506v-.182zm4.137 3.229h-1.424v-9h1.424v9zm4.348.117c-.903 0-1.635-.283-2.198-.849-.558-.571-.838-1.329-.838-2.274v-.176c0-.632.121-1.197.364-1.693.246-.5.589-.889 1.031-1.166.441-.277.933-.416 1.476-.416.864 0 1.53.275 1.999.826.472.551.708 1.33.708 2.338v.574h-4.142c.043.524.217.938.521 1.242.309.305.696.457 1.161.457.652 0 1.183-.263 1.593-.791l.768.733c-.254.379-.594.674-1.02.885-.422.207-.896.31-1.423.31zm-.17-5.431c-.391 0-.707.136-.95.41-.238.273-.39.654-.457 1.142h2.713v-.105c-.031-.477-.158-.836-.381-1.078-.222-.246-.531-.369-.925-.369zm9.574 2.261h-3.076v-1.148h3.076v1.148zm9.445-3.228c0 .418-.107.791-.322 1.119-.215.324-.508.58-.879.767.445.207.787.491 1.025.85.243.359.364.766.364 1.219 0 .75-.254 1.346-.762 1.787-.508.437-1.184.656-2.027.656-.848 0-1.528-.221-2.04-.662-.507-.441-.761-1.035-.761-1.781 0-.457.121-.867.363-1.231.242-.363.582-.642 1.02-.838-.368-.187-.659-.443-.873-.767-.211-.328-.317-.701-.317-1.119 0-.727.235-1.303.703-1.729.469-.426 1.102-.638 1.899-.638.8 0 1.435.212 1.904.638.469.426.703 1.002.703 1.729zm-1.236 3.885c0-.422-.127-.762-.381-1.02-.25-.262-.582-.393-.996-.393-.414 0-.746.129-.996.387-.246.258-.369.6-.369 1.026 0 .417.121.751.363 1.001.246.25.584.375 1.014.375.429 0 .763-.121 1.002-.363.242-.242.363-.58.363-1.013zm-.182-3.833c0-.371-.107-.675-.322-.914-.215-.242-.504-.363-.867-.363-.364 0-.651.115-.862.346-.211.226-.316.537-.316.931 0 .391.105.702.316.932.215.231.504.346.868.346.363 0 .65-.115.861-.346.215-.23.322-.541.322-.932zm8.426 2.637c0 1.227-.231 2.153-.691 2.778-.458.621-1.155.931-2.092.931-.922 0-1.617-.303-2.086-.908-.465-.609-.703-1.51-.715-2.701v-1.477c0-1.226.228-2.146.685-2.76.461-.613 1.163-.919 2.104-.919.934 0 1.629.298 2.086.896.461.598.697 1.492.709 2.684v1.476zm-1.424-1.594c0-.8-.109-1.386-.328-1.757-.219-.375-.566-.563-1.043-.563-.465 0-.807.178-1.025.533-.219.352-.334.903-.346 1.653v1.933c0 .797.111 1.391.334 1.782.223.39.572.585 1.049.585.457 0 .795-.179 1.013-.539.219-.363.334-.929.346-1.699v-1.928zm12.68 1.143c0 .809-.129 1.51-.387 2.104-.254.589-.611 1.058-1.072 1.406l1.465 1.142-.961.868-1.817-1.436c-.238.051-.494.076-.767.076-.688 0-1.303-.168-1.846-.504-.539-.34-.957-.822-1.254-1.447-.293-.625-.441-1.346-.445-2.162v-.481c0-.832.146-1.566.439-2.203.297-.636.713-1.123 1.248-1.459.539-.34 1.155-.509 1.846-.509.703 0 1.322.168 1.857.503.539.333.956.813 1.248 1.442.293.625.442 1.353.446 2.185v.475zm-1.488-.445c0-.961-.18-1.69-.54-2.186-.359-.496-.867-.744-1.523-.744-.637 0-1.137.252-1.5.756-.359.5-.543 1.207-.551 2.121v.498c0 .922.18 1.643.539 2.162.364.52.871.779 1.524.779.66 0 1.166-.25 1.517-.75.356-.5.534-1.23.534-2.191v-.445zm6.697 3.867c-.418.492-1.012.738-1.781.738-.688 0-1.209-.201-1.565-.603-.351-.403-.527-.985-.527-1.746v-4.108h1.424v4.09c0 .805.334 1.207 1.002 1.207.691 0 1.158-.248 1.4-.744v-4.553h1.424V212h-1.342l-.035-.621zm4.342.621h-1.424v-6.34h1.424V212zm-1.512-7.986c0-.219.068-.401.205-.545.141-.145.34-.217.598-.217.257 0 .457.072.597.217.141.144.211.326.211.545 0 .215-.07.394-.211.539-.14.14-.34.211-.597.211-.258 0-.457-.071-.598-.211-.137-.145-.205-.324-.205-.539zm4.389 1.646l.041.733c.468-.567 1.084-.85 1.845-.85 1.321 0 1.992.756 2.016 2.268V212h-1.424v-4.107c0-.403-.088-.7-.264-.891-.171-.195-.455-.293-.849-.293-.574 0-1.002.26-1.283.779V212h-1.424v-6.34h1.342zm7.142-1.541v1.541h1.119v1.055h-1.119v3.539c0 .242.047.418.141.527.097.106.269.158.515.158.164 0 .33-.019.498-.058v1.101c-.324.09-.636.135-.937.135-1.094 0-1.641-.603-1.641-1.81v-3.592h-1.043v-1.055h1.043v-1.541h1.424zm6 7.881c-.062-.121-.117-.318-.164-.592-.453.473-1.008.709-1.664.709-.637 0-1.156-.181-1.559-.545-.402-.363-.603-.812-.603-1.347 0-.676.25-1.194.75-1.553.504-.363 1.223-.545 2.156-.545h.873v-.416c0-.328-.092-.59-.275-.785-.184-.199-.463-.299-.838-.299-.324 0-.59.082-.797.246-.207.16-.311.365-.311.615h-1.423c0-.347.115-.672.345-.972.231-.305.543-.543.938-.715.398-.172.842-.258 1.33-.258.742 0 1.334.187 1.775.562.442.372.668.895.68 1.571v2.859c0 .57.08 1.026.24 1.365v.1h-1.453zm-1.564-1.025c.281 0 .545-.069.791-.205.25-.137.437-.321.562-.551v-1.196h-.767c-.528 0-.924.092-1.19.276-.265.183-.398.443-.398.779 0 .274.09.492.269.656.184.161.428.241.733.241zm5.783 1.025h-1.424v-9h1.424v9z"/>
        <path stroke="#BDBDBD" stroke-linecap="round" d="M30 141h300"/>
    </g>
    <defs>
        <filter id="filter0_d" width="360" height="249" x="0" y="0" color-interpolation-filters="sRGB" filterUnits="userSpaceOnUse">
            <feFlood flood-opacity="0" result="BackgroundImageFix"/>
            <feColorMatrix in="SourceAlpha" values="0 0 0 0 0 0 0 0 0 0 0 0 0 0 0 0 0 0 127 0"/>
            <feOffset/>
            <feGaussianBlur stdDeviation="10"/>
            <feColorMatrix values="0 0 0 0 0 0 0 0 0 0 0 0 0 0 0 0 0 0 0.16 0"/>
            <feBlend in2="BackgroundImageFix" result="effect1_dropShadow"/>
            <feBlend in="SourceGraphic" in2="effect1_dropShadow" result="shape"/>
        </filter>
    </defs>
</svg>
