<svg xmlns="http://www.w3.org/2000/svg" width="90" height="90" fill="none" viewBox="0 0 90 90">
    <circle cx="45" cy="45" r="45" fill="#ECECEC"/>
    <path fill="#009914" d="M53.539 35.056c.063 1.23-1.387 7.028-1.387 7.028 0 .378-.315.694-.693.694-.063 0-.126 0-.19-.032-.661-.189-1.228-.599-1.606-1.134-.41-.536-.63-1.166-.63-1.891l.03-3.436-.504-1.89v1.89H45.597c-.694 0-1.387.19-1.986.568l-9.14 5.578c-.409.22-.819.315-1.26.315-.599 0-1.733-.252-2.206-1.008l7.973-7.186c.914-.82 1.891-1.576 2.9-2.238l5.2-3.403L49.631 21h7.375l-3.625 9.928.158 4.128zM38.821 46.78c-.41.536-.945.914-1.544 1.009-.095.031-.19.031-.284.031-.346 0-.693-.094-.945-.283-.851-.6-.914-1.86-.19-2.868.316-.442.789-.788 1.261-.946.536-.157 1.103-.094 1.513.22.82.568.914 1.829.19 2.837zM51.144 61.971c-.19.284-.441.505-.694.662-.252.158-.535.284-.85.347-.095 0-.19.031-.284.031-.347 0-.693-.094-.946-.315-.819-.599-.913-1.86-.189-2.868.379-.536.946-.914 1.545-1.008.472-.063.914.031 1.26.283.82.6.883 1.86.158 2.868z"/>
    <path fill="#009914" d="M45.723 41.895c0 .977-.535 1.797-1.386 1.986-.095.031-.221.031-.316.031-.41 0-.819-.157-1.166-.441-.378-.347-.661-.82-.787-1.387-.253-1.229.315-2.332 1.323-2.553.504-.094 1.04.063 1.481.41.379.347.662.82.788 1.387.063.189.063.378.063.567zM44.778 53.21c-.379.189-.788.315-1.198.315-.126 0-.252 0-.347-.032-.567-.094-1.04-.41-1.26-.85-.473-.915 0-2.08 1.103-2.68.599-.315 1.26-.378 1.828-.22.44.126.787.41 1.008.788.441.914-.031 2.08-1.134 2.678zM39.168 56.519c-.032.567-.252 1.072-.599 1.45-.347.378-.82.599-1.292.599h-.126c-1.04-.095-1.734-1.135-1.639-2.364.063-.567.252-1.072.599-1.45.378-.41.882-.63 1.418-.599 1.04.063 1.765 1.103 1.639 2.364zM56.596 50.278c-3.088-1.48-6.586-1.701-9.801-.63l.189.284c.378.725.41 1.512.19 2.237 2.867-1.103 6.05-.882 8.824.6l.599.346.598-.347c3.183-1.765 6.965-1.796 10.149-.063v-2.773c-3.436-1.419-7.344-1.324-10.747.346zM33.148 52.894l.599.347.599-.347c1.922-1.071 4.065-1.48 6.146-1.292.094-.882.535-1.733 1.323-2.363-2.71-.505-5.547-.127-8.1 1.134-3.403-1.639-7.28-1.733-10.715-.283v2.804c3.183-1.733 6.965-1.733 10.148 0zM33.148 58.22l.599.347.599-.347c.094-.031.157-.094.252-.126-.284-.567-.41-1.26-.347-1.985.032-.252.063-.473.126-.694-.22.095-.41.19-.63.284-3.404-1.639-7.28-1.733-10.747-.252v2.805c3.183-1.765 6.965-1.797 10.148-.032zM56.596 55.605c-3.624-1.765-7.816-1.733-11.408.032-1.67-.82-3.467-1.23-5.264-1.293.379.662.568 1.45.505 2.27 0 .094-.032.189-.032.283 1.45.126 2.868.536 4.192 1.26l.599.348.598-.347c3.183-1.765 6.997-1.797 10.212-.032l.598.347.6-.347c3.15-1.764 6.933-1.796 10.147-.063V55.29c-3.435-1.45-7.343-1.355-10.747.315zM56.628 60.931c-1.23-.599-2.521-.977-3.813-1.166.031.19.063.347.094.536.032.662-.126 1.355-.441 1.954 1.229.189 2.458.567 3.593 1.197l.598.347.6-.346c3.15-1.765 6.933-1.797 10.116-.095v-2.773c-3.467-1.419-7.343-1.324-10.747.346zM46.543 60.396c-.441.157-.883.346-1.324.567-2.364-1.135-4.948-1.513-7.47-1.166-.062 0-.125.031-.157.031-1.292.19-2.584.6-3.782 1.198-3.404-1.639-7.312-1.734-10.778-.252v2.805c3.183-1.765 6.996-1.765 10.18 0l.598.346.6-.346c3.182-1.765 6.996-1.797 10.21-.032l.6.347.598-.347c.347-.189.725-.378 1.072-.536-.221-.346-.379-.724-.442-1.166-.063-.504-.031-.977.095-1.45z"/>
</svg>
