<svg xmlns="http://www.w3.org/2000/svg" width="90" height="90" fill="none" viewBox="0 0 90 90">
    <circle cx="45" cy="45" r="45" fill="#ECECEC"/>
    <path fill="#009914" d="M62.745 52.515c-1.28.474-3.318.996-5.593 1.517-.806 1.327-2.275 2.417-4.597 2.844-.522.095-1.138.142-1.801.19-1.612.047-3.507-.143-5.593-.285-.142 0-.284-.047-.426-.047-.522-.048-.948-.427-.996-.948-.047-.664.474-1.185 1.09-1.09.143 0 .332.047.474.047 2.702.237 5.261.474 6.873.142 2.986-.569 3.839-2.37 3.65-3.886-.143-1.233-1.09-2.418-2.56-2.323-2.086.142-4.55 0-6.967-.19-2.75-.189-5.546-.284-7.536-.047-2.228.237-6.73 1.896-10.712 4.598-1.943 1.327-4.123 2.89-5.45 3.886-.664.474-.806 1.422-.285 2.085l5.783 7.489c.474.664 1.422.758 2.085.284l2.133-1.659c.521-.379 1.185-.52 1.754-.331 3.886 1.232 8.057 2.038 10.758 2.18 5.925.284 17.347-6.73 20.617-9.005 3.27-2.228.901-6.825-2.701-5.45z"/>
    <circle cx="48.007" cy="33.812" r="10.812" fill="#009914"/>
    <path fill="#fff" d="M49.495 32.224c-.16.63-.48 1.136-.96 1.52-.48.374-1.008.64-1.584.8l3.824 5.04h-2.016l-2.832-3.76c-.31-.416-.56-.714-.752-.896-.181-.192-.41-.288-.688-.288v-1.168h.944c.565 0 1.04-.096 1.424-.288.395-.202.667-.522.816-.96h-3.472l.48-1.36h3.024c-.085-.341-.261-.608-.528-.8-.256-.192-.608-.298-1.056-.32h-1.92l.48-1.36h7.024l-.48 1.36h-2.048c.203.352.325.726.368 1.12h2.16l-.48 1.36h-1.728z"/>
</svg>
