<svg xmlns="http://www.w3.org/2000/svg" width="68" height="66" fill="none" viewBox="0 0 68 66">
    <path fill="#D90429" d="M23.904 47.859l-.1.022c-.785.177-1.564.255-2.324.246l-2.957 9.535c-.27.874.24 1.747 1.134 1.941l5.51 1.198c.879.19 1.8-.346 2.066-1.205l4.316-13.92-7.645 2.183zM41.986 5.26L28.835 18.253l6.12 24.922 17.36 4.065c1.28.3 2.524-.858 2.226-2.071L44.888 5.863c-.3-1.223-1.932-1.562-2.902-.603zM12.944 41.04l-2.568-10.504c-.147-.602-.22-1.209-.227-1.812l-2.473.704c-1.784.509-2.905 2.25-2.504 3.89l1.974 8.074c.4 1.64 2.172 2.558 3.955 2.05l2.472-.704c-.269-.53-.483-1.097-.63-1.697zM32.158 41.507l-9.621 2.787c-3.162.727-6.26-.896-6.962-3.802l-2.514-10.399c-.703-2.906 1.256-5.994 4.417-6.72l9.621-2.788 5.06 20.922zM59.554 36.768c-.417.119-.871.087-1.264-.125l-4.058-2.185c-.785-.423-1.027-1.403-.54-2.189.487-.785 1.52-1.079 2.305-.656l4.058 2.186c.785.423 1.027 1.403.54 2.188-.244.393-.624.663-1.04.781zM51.167 18.671c-.418.12-.872.087-1.265-.125-.785-.423-1.027-1.402-.54-2.188l2.518-4.057c.487-.786 1.519-1.08 2.304-.656.786.423 1.028 1.403.54 2.188l-2.517 4.057c-.243.393-.623.663-1.04.781zM59.377 24.916l-4.585 1.293c-.887.25-1.775-.226-1.982-1.064-.207-.838.344-1.72 1.231-1.97l4.585-1.294c.888-.25 1.775.226 1.983 1.064.207.838-.345 1.72-1.232 1.97z"/>
</svg>
