<svg xmlns="http://www.w3.org/2000/svg" width="90" height="90" fill="none" viewBox="0 0 90 90">
    <circle cx="45" cy="45" r="45" fill="#ECECEC"/>
    <path fill="#009914" d="M42.778 30.387h7.317c0 1.515 1.202 2.717 2.718 2.717 1.515 0 2.717-1.202 2.717-2.717h1.568c.523 0 .941-.419.941-.941v-2.09c0-.733-.105-1.517-.366-2.196l-1.306-4.076c-.157-.366-.523-.628-.889-.628h-4.285v-1.515c0-.523-.419-.941-.941-.941H35.775c-.523 0-.941.418-.941.94v10.453c0 .523.418.941.94.941h1.569c0 1.516 1.202 2.718 2.717 2.718 1.464.052 2.718-1.15 2.718-2.665zm10.035 1.254c-.732 0-1.307-.575-1.307-1.307s.575-1.306 1.307-1.306c.731 0 1.306.575 1.306 1.306 0 .732-.575 1.307-1.306 1.307zm-1.62-9.355c0-.21.156-.366.365-.366h3.293c.157 0 .313.104.366.261l.732 2.247c.052.21-.053.366-.262.366h-4.129c-.209 0-.365-.157-.365-.366v-2.142zM40.06 31.64c-.731 0-1.306-.575-1.306-1.307s.575-1.306 1.306-1.306c.732 0 1.307.575 1.307 1.306 0 .732-.627 1.307-1.307 1.307zM63.788 58.975c2.367 0 4.286-1.919 4.286-4.286 0-2.367-1.92-4.285-4.286-4.285-2.367 0-4.286 1.918-4.286 4.285s1.92 4.286 4.286 4.286zM67.603 60.229c-1.097.732-2.404 1.202-3.763 1.202-1.41 0-2.718-.418-3.763-1.202-1.933.68-3.292 2.509-3.292 4.651v2.352c0 .262.209.47.47.47H70.53c.261 0 .47-.208.47-.47V64.88c-.104-2.195-1.515-3.972-3.397-4.651zM54.067 56.518H46.75v-1.463c0-.836-.94-1.307-1.62-.836l-4.024 2.718c-.628.418-.628 1.306 0 1.724l4.024 2.77c.68.47 1.62 0 1.62-.836v-1.463h7.317c.732 0 1.307-.575 1.307-1.307s-.628-1.307-1.307-1.307zM38.754 36.606c-.157-.732-.993-1.045-1.568-.68l-4.077 2.666c-.68.47-.575 1.516.157 1.83l1.359.574-2.456 5.958c-.262.68.052 1.411.679 1.672.157.053.314.105.47.105.523 0 .993-.314 1.203-.784l2.456-5.958 1.359.575c.784.313 1.568-.366 1.41-1.15l-.992-4.808zM55.53 36.606c-.26-.68-1.044-.941-1.724-.68-.627.262-.94 1.046-.68 1.725l2.614 5.906-1.36.575c-.783.313-.835 1.359-.156 1.829l4.129 2.56c.627.367 1.411.053 1.568-.678l.888-4.809c.157-.836-.68-1.463-1.41-1.15l-1.36.575-2.508-5.853zM28.83 59.355l.302-.215-.154-.337c-.245-.53-.603-1-1.05-1.376-.447-.377-.97-.65-1.535-.801-.564-.151-1.154-.177-1.73-.074-.574.103-1.12.33-1.596.667l-.304.214.156.338c.244.53.603 1 1.05 1.376.446.377.97.65 1.534.801.564.151 1.155.176 1.73.074.575-.103 1.12-.33 1.597-.667zM29.226 61.53c-.565-.151-1.155-.177-1.73-.074-.576.103-1.122.331-1.598.67l-.302.214.154.335c.245.53.603 1.001 1.05 1.378.446.376.97.65 1.534.801.565.151 1.155.176 1.73.074.575-.103 1.12-.331 1.598-.669l.303-.213-.156-.337c-.244-.53-.601-1.002-1.048-1.378-.447-.377-.97-.65-1.535-.8zM30.704 57.805l.215.304.337-.156c.53-.244 1-.602 1.377-1.049.377-.447.65-.97.802-1.535.15-.564.176-1.155.073-1.73s-.331-1.12-.668-1.597l-.215-.302-.337.154c-.53.245-1 .603-1.376 1.05-.377.446-.65.97-.801 1.534-.151.565-.177 1.155-.074 1.73s.33 1.12.667 1.597zM33.537 62.712l.214.302.337-.155c.53-.244 1-.603 1.377-1.05.376-.446.65-.97.8-1.534.152-.564.177-1.154.075-1.73-.103-.574-.331-1.12-.668-1.597l-.214-.302-.337.154c-.53.245-1 .604-1.377 1.05-.376.447-.65.97-.8 1.535-.152.564-.177 1.154-.075 1.73.103.574.33 1.12.668 1.597zM29.02 55.992l-.771.446 6.5 11.26.773-.446-6.501-11.26zM27.577 55.498c.117.031.238.058.359.078l.366.062.129-.347c.202-.548.28-1.134.231-1.715-.05-.582-.227-1.146-.519-1.652-.292-.506-.691-.941-1.17-1.275-.48-.334-1.026-.559-1.602-.657l-.366-.063-.129.347c-.191.519-.272 1.072-.238 1.624.034.552.183 1.09.438 1.582.253.491.607.924 1.038 1.271.43.347.929.6 1.463.745z"/>
</svg>
