<svg xmlns="http://www.w3.org/2000/svg" width="90" height="90" fill="none" viewBox="0 0 90 90">
    <circle cx="45" cy="45" r="45" fill="#ECECEC"/>
    <path fill="#009914" d="M27.003 23c-.532 0-1.041.212-1.417.588-.375.375-.586.885-.586 1.416v35.408c0 .531.212 1.04.587 1.416.375.375.885.586 1.416.587h19.079V42.178c0-.47.092-.937.273-1.372.18-.434.444-.83.776-1.162.333-.333.728-.597 1.163-.777.435-.18.9-.273 1.371-.273h7.197v-13.59c0-.53-.21-1.04-.586-1.416C55.9 23.212 55.39 23 54.86 23H27.003zm6.485 1h14.88v.266c0 .423-.083.842-.245 1.233-.162.39-.4.746-.699 1.045-.299.3-.654.536-1.045.698-.39.162-.81.245-1.233.245H36.71c-.423 0-.841-.083-1.232-.245-.391-.162-.746-.399-1.045-.698-.3-.3-.537-.654-.699-1.045-.161-.39-.245-.81-.245-1.233V24zm2.58 9.656h1.748v5.887h2.083v-4.095h1.75v4.095h1.83v1.749H30.405v-1.749h1.83v-2.892h1.75v2.892h2.083v-5.887zm-.19 11.662c.77-.02 1.535.113 2.253.393.717.28 1.37.702 1.922 1.24.552.537.99 1.18 1.289 1.89.298.71.451 1.472.45 2.242.004.759-.142 1.511-.43 2.213-.287.702-.71 1.34-1.245 1.879-.535.538-1.171.964-1.872 1.256-.7.29-1.452.44-2.21.44-.759 0-1.51-.15-2.21-.44-.701-.292-1.337-.718-1.872-1.256-.535-.538-.959-1.177-1.246-1.879-.288-.702-.434-1.454-.43-2.213-.002-1.501.582-2.944 1.628-4.021 1.046-1.077 2.471-1.703 3.972-1.744z"/>
    <path fill="#009914" d="M49.665 39.66c-.33 0-.658.064-.964.19-.305.127-.583.313-.817.547-.233.234-.419.511-.545.817-.127.305-.192.633-.192.963v22.661c0 .331.065.659.192.964.126.306.312.583.545.817.234.234.512.42.817.546.306.127.633.192.964.192h15.817c.33 0 .658-.065.964-.192.305-.127.583-.312.817-.546.234-.234.419-.511.546-.817.126-.306.191-.633.191-.964v-22.66c0-.331-.065-.659-.191-.964-.127-.306-.313-.583-.546-.817-.234-.234-.512-.42-.817-.546-.306-.127-.633-.192-.964-.192H49.665zm.873 2.962h14.026c.096 0 .19.02.279.056.088.036.168.09.235.157.068.068.121.148.158.236.036.088.055.183.055.278v4.57c0 .095-.019.19-.055.278-.037.088-.09.168-.158.236-.067.067-.147.12-.235.157-.089.037-.183.055-.279.055H50.538c-.096 0-.19-.018-.278-.055-.089-.036-.169-.09-.236-.157-.068-.068-.121-.148-.158-.236-.036-.088-.055-.183-.055-.278v-4.57c0-.095.019-.19.055-.278.037-.088.09-.168.158-.236.067-.067.147-.12.236-.157.088-.037.182-.056.278-.056zm.038 8.794h1.466c.166 0 .33.032.482.095.153.063.292.156.41.273.116.117.21.255.273.408.063.153.096.317.096.482v.504c0 .166-.033.33-.096.483-.063.152-.156.292-.273.409-.117.117-.256.21-.41.273-.152.063-.316.095-.482.095h-1.466c-.166 0-.33-.032-.482-.096-.153-.063-.292-.156-.409-.273-.116-.117-.21-.256-.272-.409-.063-.153-.096-.316-.096-.482v-.504c0-.334.133-.654.37-.89.235-.235.555-.368.889-.368zm6.277 0h1.467c.165 0 .329.032.481.095.153.063.292.156.41.273.116.117.21.256.273.408.063.153.096.317.096.482v.504c0 .166-.033.33-.096.483-.063.152-.156.291-.273.408-.117.117-.256.21-.409.274-.153.063-.317.095-.482.095h-1.467c-.166 0-.33-.033-.482-.096-.153-.063-.292-.156-.408-.273-.117-.117-.21-.256-.273-.409-.063-.153-.096-.316-.096-.482v-.504c0-.334.133-.654.37-.89.235-.235.555-.368.889-.368zm6.277 0h1.467c.334 0 .653.133.89.369.235.236.368.555.368.889v.504c0 .166-.032.33-.095.482-.064.153-.156.292-.273.409-.117.117-.256.21-.408.273-.153.063-.317.096-.482.096H63.13c-.166 0-.33-.032-.483-.095-.152-.064-.291-.156-.409-.273-.117-.117-.21-.257-.273-.41-.063-.152-.096-.316-.096-.482v-.504c0-.165.033-.33.097-.482.063-.153.156-.291.273-.408.117-.117.256-.21.409-.273.153-.063.317-.095.482-.095zm-12.554 5.137h1.466c.166 0 .33.032.483.095.153.064.292.156.409.273.117.118.21.257.273.41.063.152.096.316.096.482v.504c0 .166-.033.33-.096.482-.064.153-.157.291-.274.408-.117.117-.256.21-.409.273-.153.063-.316.095-.482.095h-1.466c-.334 0-.654-.132-.89-.368s-.368-.556-.369-.89v-.504c0-.165.032-.33.096-.482.063-.153.156-.292.272-.409.117-.117.256-.21.409-.273.153-.063.316-.096.482-.096zm6.277 0h1.467c.165 0 .329.032.482.096.153.063.292.156.409.273.117.117.21.256.273.409.063.153.096.316.096.482v.504c0 .166-.033.33-.096.482-.064.153-.157.291-.274.408-.117.117-.256.21-.409.273-.152.063-.316.095-.481.095h-1.467c-.334 0-.654-.133-.89-.369-.236-.235-.368-.555-.369-.889v-.504c0-.165.033-.33.096-.482.063-.153.156-.292.273-.409.116-.117.255-.21.408-.273.153-.063.316-.096.482-.096zm6.277 0h1.467c.165 0 .329.033.482.096.152.063.291.156.408.273.117.117.21.256.273.41.063.152.095.316.095.481v5.641c0 .334-.133.654-.369.89s-.556.368-.89.368H63.13c-.165 0-.33-.032-.482-.095-.153-.063-.292-.156-.409-.273-.117-.116-.21-.255-.273-.408-.064-.153-.096-.316-.096-.482v-5.641c0-.166.032-.33.095-.483.063-.152.156-.291.273-.408.117-.117.257-.21.41-.274.152-.063.316-.095.482-.095zm-12.554 5.139h1.466c.166 0 .33.032.482.095.153.063.292.156.41.273.116.117.21.255.273.408.063.153.096.317.096.482v.504c0 .166-.033.33-.096.482-.064.153-.157.292-.274.408-.117.117-.256.21-.409.273-.153.063-.316.096-.482.095h-1.466c-.334 0-.654-.132-.89-.368s-.368-.556-.369-.89v-.504c0-.334.133-.654.37-.89.235-.235.555-.368.889-.368zm6.277 0h1.467c.165 0 .329.032.481.095.153.064.292.156.41.273.116.117.21.256.273.408.063.153.096.317.096.482v.504c0 .166-.033.33-.096.482-.064.153-.157.291-.274.408-.117.117-.256.21-.409.273-.152.063-.316.095-.481.095h-1.467c-.334 0-.654-.133-.89-.368-.236-.236-.368-.556-.369-.89v-.504c0-.334.133-.653.37-.89.235-.235.555-.368.889-.368zM36.037 47.216c-.765 0-1.513.227-2.148.652-.636.424-1.132 1.028-1.425 1.735-.292.706-.369 1.484-.22 2.234.15.75.518 1.439 1.058 1.98.541.54 1.23.909 1.98 1.058.75.149 1.527.072 2.234-.22.706-.293 1.31-.788 1.735-1.424.425-.636.652-1.384.652-2.148h-3.866v-3.867z"/>
</svg>
