<svg xmlns="http://www.w3.org/2000/svg" width="90" height="90" fill="none" viewBox="0 0 90 90">
    <circle cx="45" cy="45" r="45" fill="#ECECEC"/>
    <path fill="#009914" d="M26 27v19.541h16.418l-.003-3.105h-9.796l-.046-.003-.038-.005c-.12-.017-.23-.076-.309-.166-.079-.09-.121-.205-.12-.324 0-.996-.812-1.793-1.83-1.8-.028 0-.056-.002-.084-.006-.068-.01-.134-.032-.193-.067s-.11-.081-.15-.136c-.04-.055-.067-.118-.08-.184-.014-.066-.014-.134 0-.2V32.89c-.001-.13.05-.255.142-.348.092-.092.218-.146.35-.148.023 0 .046.002.07.005.981-.026 1.76-.788 1.784-1.75-.008-.069 0-.138.021-.204.022-.067.057-.128.105-.179.048-.051.106-.092.171-.12.065-.028.135-.042.206-.04h24.753c.071-.001.142.013.207.04.065.028.123.07.17.121.049.052.084.113.106.179.022.066.029.136.02.205.026.972.82 1.744 1.819 1.753l.033-.003c.066 0 .133.011.195.036.062.024.118.06.165.107.047.046.084.101.11.162.025.06.037.125.036.19v7.743c0 .066-.012.131-.037.192-.026.06-.064.116-.111.162-.048.046-.105.082-.168.107-.062.024-.129.035-.196.034h-.001c-1.022 0-1.839.8-1.84 1.798.001.066-.01.132-.035.193-.024.061-.062.117-.109.164s-.103.084-.166.11c-.062.024-.129.037-.196.036H47.83l.003 3.106H64V27H26zm7.073 4.084c-.206 1.146-1.134 2.053-2.305 2.255v6.87c1.164.206 2.084 1.11 2.29 2.25h9.516c.971-2.13 4.256-1.882 5.114 0h9.236c.206-1.147 1.135-2.056 2.308-2.256V33.34c-1.177-.198-2.11-1.107-2.317-2.257H33.073zM45 33.317c.937 0 1.834.364 2.497 1.012.662.648 1.034 1.526 1.034 2.442 0 .916-.372 1.795-1.034 2.442-.663.648-1.56 1.012-2.497 1.012-.936 0-1.834-.364-2.496-1.012-.663-.647-1.035-1.526-1.035-2.442 0-.916.372-1.794 1.035-2.442.662-.648 1.56-1.012 2.496-1.012zm.143 8.271c-1.133 0-2.087.874-2.1 1.968l-.08 10.047-2.601-2.397c-.367-.338-.844-.511-1.317-.51-.473 0-.94.174-1.289.533l-.171.177c-.35.36-.495.85-.457 1.292.037.441.228.846.505 1.19l5.329 6.609.039.053.008.016c-.006-.026-.008-.038.005-.005.024.064.012.034-.005.005.005.02.011.047.015.072.006.052.008.086.008.093l-.008 1.334c0 .704.656.705.656.705h9.899s.684 0 .655-.704c0 0-.052-1.263.02-1.646.047-.259.064-.245.181-.473.119-.228.287-.596.486-1.316.252-.914.263-2.534.267-4.07.003-1.523-.041-2.86-.042-2.88.061-1.107-.896-1.977-1.975-1.977-.382 0-.734.115-1.035.304-.351-.512-.928-.86-1.596-.86-.378 0-.724.116-1.02.304-.352-.508-.925-.852-1.59-.852-.233 0-.45.05-.655.125l-.03-5.16c-.007-1.103-.969-1.975-2.102-1.975v-.002zm-2.41 21.634c-.467 0-.843.594-.843 1.333v1.112c0 .739.376 1.333.843 1.333h11.678c.468 0 .843-.594.843-1.332v-1.113c0-.738-.375-1.333-.843-1.333H42.733z"/>
</svg>
