<svg xmlns="http://www.w3.org/2000/svg" width="90" height="90" fill="none" viewBox="0 0 90 90">
    <circle cx="45" cy="45" r="45" fill="#ECECEC"/>
    <path fill="#009914" d="M40.912 36.547h7.924c.71 0 1.283.729 1.283 1.63 0 .899-.573 1.625-1.283 1.625h-7.924c-.71 0-1.283-.726-1.283-1.626 0-.9.572-1.63 1.283-1.63zm3.93-10.801c-.616.007-1.222.181-1.74.504L27.08 36.204c-.827.515-1.332 1.42-1.332 2.393v23.477c0 1.153.936 2.086 2.089 2.086h4.32c.276 0 .5-.223.5-.5V44.967c0-.973.732-1.759 1.637-1.759h21.163c.907 0 1.634.786 1.634 1.76V63.66c0 .276.224.5.5.5h4.324c1.153 0 2.086-.934 2.086-2.087V38.597c0-.973-.501-1.878-1.33-2.393L46.649 26.25c-.562-.349-1.189-.51-1.806-.505z"/>
    <path fill="#009914" d="M36.684 55.477c-.768 0-1.384.616-1.384 1.384v5.916c0 .767.616 1.384 1.384 1.384H42.6c.767 0 1.384-.617 1.384-1.384v-5.916c0-.768-.617-1.384-1.384-1.384h-2.074v2.097c0 .161-.177.292-.4.292h-.965c-.224 0-.407-.13-.407-.292v-2.097h-2.07zM47.15 55.477c-.768 0-1.386.616-1.386 1.384v5.916c0 .767.618 1.384 1.386 1.384h5.913c.768 0 1.385-.617 1.385-1.384v-5.916c0-.768-.617-1.384-1.385-1.384h-2.07v2.097c0 .161-.18.292-.404.292h-.965c-.223 0-.403-.13-.403-.292v-2.097h-2.07zM36.684 45.013c-.768 0-1.384.617-1.384 1.384v5.913c0 .768.616 1.387 1.384 1.387H42.6c.767 0 1.384-.619 1.384-1.387v-5.913c0-.767-.617-1.384-1.384-1.384h-2.074v2.094c0 .164-.177.294-.4.294h-.965c-.224 0-.407-.13-.407-.294v-2.094h-2.07zM47.15 45.013c-.768 0-1.386.617-1.386 1.384v5.913c0 .768.618 1.387 1.386 1.387h5.913c.768 0 1.385-.619 1.385-1.387v-5.913c0-.767-.617-1.384-1.385-1.384h-2.07v2.094c0 .164-.18.294-.404.294h-.965c-.223 0-.403-.13-.403-.294v-2.094h-2.07z"/>
</svg>
